<?xml version="1.0" standalone="no"?>
<!DOCTYPE svg PUBLIC "-//W3C//DTD SVG 20010904//EN"
 "http://www.w3.org/TR/2001/REC-SVG-20010904/DTD/svg10.dtd">
<svg version="1.0" xmlns="http://www.w3.org/2000/svg"
 width="6020.000000pt" height="1520.000000pt" viewBox="0 0 6020.000000 1520.000000"
 preserveAspectRatio="xMidYMid meet">

<g transform="translate(0.000000,1520.000000) scale(0.100000,-0.100000)"
fill="#000000" stroke="none">
<path d="M0 7600 l0 -7600 5600 0 5600 0 2 1058 c0 581 0 1068 -1 1082 -1 15
-16 37 -37 55 -20 17 -62 56 -93 87 -31 31 -70 62 -87 68 -20 8 -197 11 -605
8 -534 -2 -577 -1 -602 15 -33 21 -35 56 -6 83 20 18 49 19 653 24 l631 5 65
30 c56 26 76 29 150 29 73 -1 95 -5 157 -32 l72 -32 290 0 c286 0 290 0 316
23 21 18 26 33 31 91 5 69 37 168 77 236 96 163 275 307 484 391 104 42 119
46 253 70 384 71 795 -39 1053 -281 134 -126 213 -267 224 -404 5 -51 12 -75
29 -95 l22 -26 329 -3 c297 -2 331 -1 363 15 l35 18 0 155 c0 134 3 160 18
184 38 57 10 55 933 54 467 0 872 0 899 0 28 0 193 1 367 2 292 2 319 1 354
-16 71 -36 79 -58 76 -207 -1 -73 0 -142 3 -153 10 -43 56 -53 240 -51 l170 3
70 38 c61 33 77 37 120 34 29 -3 79 -19 119 -38 l69 -34 607 3 c652 3 669 2
685 -48 7 -25 -8 -57 -35 -71 -14 -7 -208 -11 -603 -10 -537 0 -584 -1 -614
-17 -50 -28 -182 -132 -190 -151 -5 -9 -7 -506 -5 -1104 l3 -1088 2603 0 2603
0 7 207 c3 115 9 251 12 304 6 96 6 97 -19 114 -14 9 -61 25 -104 36 -165 41
-288 106 -401 213 -82 78 -116 129 -143 217 -44 140 -9 279 100 403 207 237
588 341 932 253 227 -59 440 -213 509 -369 20 -46 42 -70 73 -81 10 -4 76 -7
146 -8 154 -1 184 10 200 69 6 20 11 44 11 53 0 8 13 55 30 103 16 49 41 143
54 210 14 67 28 129 32 139 9 25 36 37 84 37 52 0 95 -39 106 -96 9 -48 70
-221 117 -330 19 -44 38 -96 42 -115 4 -18 23 -72 42 -119 19 -47 41 -118 49
-159 19 -101 35 -123 81 -119 32 3 40 9 60 47 18 35 23 60 23 123 0 73 4 88
49 191 28 62 55 135 62 162 22 94 56 135 111 135 67 0 89 -26 139 -164 18 -49
39 -91 49 -96 50 -27 110 5 130 68 14 44 75 152 145 260 28 42 80 128 115 191
54 95 70 116 100 129 30 12 41 13 75 1 44 -15 48 -24 78 -159 23 -101 84 -332
96 -364 6 -16 16 -73 22 -127 14 -136 28 -173 66 -177 40 -4 79 41 88 100 12
77 26 108 55 123 16 8 36 15 45 15 35 0 94 -42 134 -95 48 -63 92 -95 133 -95
33 0 52 32 62 103 4 26 20 79 37 118 16 39 44 126 63 193 47 170 59 194 100
211 43 18 87 10 117 -21 19 -20 23 -40 31 -161 5 -76 18 -181 29 -233 11 -52
24 -160 29 -240 9 -166 18 -200 53 -200 37 0 58 32 83 130 31 120 60 185 90
200 28 15 24 15 279 3 251 -13 283 -5 325 78 55 107 175 212 324 284 126 60
221 80 381 79 207 -1 354 -49 520 -171 189 -139 265 -332 205 -524 -26 -84
-52 -126 -130 -205 -83 -85 -182 -145 -315 -194 -60 -21 -116 -47 -126 -57
-15 -16 -18 -52 -24 -320 l-8 -303 1305 0 1304 0 27 62 c56 130 38 148 -148
148 -135 0 -193 10 -220 36 -27 28 -18 62 33 117 27 29 93 111 148 182 54 72
113 147 129 169 17 21 48 62 70 91 221 293 368 475 399 494 18 12 66 27 107
35 41 8 142 37 224 64 83 27 238 77 345 112 107 34 234 75 282 91 101 34 151
36 195 9 26 -15 33 -26 33 -51 0 -31 3 -28 -240 -293 -36 -39 -126 -139 -200
-221 -74 -82 -181 -198 -237 -256 -107 -111 -121 -139 -82 -160 23 -12 53 -9
161 14 78 18 134 9 161 -24 26 -33 21 -55 -25 -105 -24 -26 -56 -66 -73 -89
-34 -48 -183 -244 -262 -344 -29 -36 -53 -69 -53 -73 0 -5 715 -8 1590 -8
l1590 0 2 417 c2 230 5 1331 6 2448 2 1117 5 2158 8 2315 2 157 2 295 -1 307
-12 51 -16 52 -636 48 -612 -3 -629 -2 -644 45 -10 31 19 68 57 74 18 3 72 7
121 9 103 6 128 17 322 137 72 45 263 147 425 228 261 129 301 146 346 146 29
1 58 -5 67 -13 20 -16 22 -64 5 -79 -7 -5 -92 -46 -189 -91 -251 -115 -521
-256 -550 -287 -24 -25 -24 -26 -4 -41 29 -22 295 -10 345 16 19 10 98 53 175
96 243 136 825 417 873 423 58 6 92 -12 92 -50 0 -38 -38 -72 -103 -94 -29 -9
-146 -64 -262 -121 -115 -57 -255 -124 -311 -149 -55 -25 -116 -59 -134 -76
-33 -29 -33 -31 -14 -45 15 -11 48 -13 174 -8 224 9 236 12 396 112 163 100
412 235 469 253 22 7 103 40 180 72 183 78 265 81 265 12 0 -38 -29 -58 -166
-112 -71 -28 -163 -65 -204 -82 -120 -50 -380 -191 -392 -213 -18 -33 14 -47
108 -47 94 0 137 13 232 69 89 53 410 203 643 301 102 43 208 89 236 104 77
38 134 50 177 36 39 -13 53 -39 36 -69 -13 -25 -20 -29 -178 -98 -127 -55
-163 -70 -425 -177 -148 -59 -230 -100 -249 -124 -10 -11 -8 -17 7 -29 17 -11
56 -13 230 -8 116 4 222 11 237 17 15 6 43 29 61 52 61 73 414 255 668 344 64
22 144 52 177 66 88 37 163 31 177 -15 15 -46 -37 -80 -215 -139 -224 -75
-592 -243 -614 -282 -7 -11 -6 -21 3 -32 12 -14 39 -15 220 -10 113 3 222 10
241 16 19 6 76 34 125 63 50 28 118 68 153 88 34 20 136 70 226 112 169 78
231 92 268 63 45 -37 19 -82 -69 -120 -32 -14 -122 -53 -199 -87 -152 -67
-196 -99 -174 -126 12 -14 38 -15 214 -9 111 4 210 11 221 17 11 6 38 29 60
53 48 52 166 117 380 211 503 221 514 225 559 180 48 -48 14 -86 -120 -136
-83 -30 -319 -130 -491 -207 -56 -25 -112 -57 -125 -71 -23 -24 -23 -25 -3
-39 16 -12 52 -14 215 -8 107 4 204 11 215 17 11 6 42 28 70 50 45 36 372 203
435 222 14 4 94 38 177 76 155 70 198 80 247 58 64 -30 32 -79 -85 -130 -46
-20 -156 -67 -244 -104 -237 -99 -292 -126 -312 -147 -17 -19 -17 -20 2 -35
16 -12 45 -14 151 -10 l131 4 249 125 c137 68 314 153 394 187 80 35 184 81
231 102 93 42 150 49 187 23 26 -18 29 -55 5 -77 -10 -8 -63 -34 -118 -57 -55
-24 -139 -60 -186 -80 -47 -21 -141 -62 -210 -90 -128 -54 -189 -91 -189 -115
0 -24 35 -26 265 -18 l220 9 340 168 c370 184 401 195 448 147 20 -20 21 -23
7 -49 -16 -29 -69 -58 -262 -143 -64 -28 -131 -64 -150 -79 -29 -25 -31 -29
-18 -45 13 -15 29 -17 135 -13 111 3 125 6 170 33 117 67 342 167 460 205 50
16 183 71 250 103 28 13 87 41 133 61 45 20 117 52 161 71 43 19 88 35 99 35
40 0 71 -19 78 -46 9 -37 -29 -70 -121 -109 -39 -16 -124 -53 -190 -83 -151
-68 -323 -137 -394 -158 -63 -18 -146 -58 -157 -75 -4 -7 1 -18 12 -26 16 -12
51 -13 214 -6 232 9 276 9 312 0 61 -16 78 -73 31 -104 -25 -17 -78 -18 -778
-20 -412 -2 -766 -3 -785 -4 -19 -1 -121 2 -227 6 -206 9 -242 3 -260 -38 -6
-14 -7 -120 -2 -287 5 -146 10 -411 13 -590 2 -179 5 -326 5 -327 1 -2 12 -10
26 -19 19 -12 65 -18 197 -25 454 -22 883 -198 1206 -495 99 -90 185 -207 249
-337 73 -149 109 -300 133 -572 14 -152 30 -285 41 -334 34 -157 49 -596 40
-1201 -4 -272 -4 -505 1 -518 4 -12 19 -27 32 -32 14 -5 215 -10 448 -12 l423
-3 32 -23 c51 -36 56 -73 51 -357 -3 -137 -3 -276 0 -307 l4 -58 8254 0 8254
0 0 7600 0 7600 -4740 0 c-2736 0 -4740 -4 -4740 -9 0 -5 8 -11 18 -13 9 -2
242 -1 517 3 452 6 503 5 535 -10 29 -13 35 -22 35 -46 0 -24 -7 -33 -35 -48
-32 -16 -76 -17 -575 -17 -297 1 -546 1 -552 1 -21 -1 -15 -21 17 -58 35 -39
37 -54 12 -76 -29 -26 -94 -21 -160 11 -31 16 -84 39 -117 52 -80 32 -104 48
-111 76 -8 31 7 48 80 96 l59 38 -1229 0 c-1191 0 -1228 -1 -1199 -18 17 -10
54 -32 84 -48 66 -35 93 -74 80 -114 -6 -15 -48 -58 -99 -100 -49 -41 -102
-91 -117 -113 -60 -86 -183 -90 -183 -6 0 17 19 44 60 84 99 98 80 126 -72
106 -47 -5 -323 -11 -629 -13 -505 -2 -548 -1 -572 15 -46 30 -29 80 31 96 22
6 271 11 617 12 363 1 585 5 593 12 19 15 14 36 -14 62 l-27 25 -2792 0 -2792
0 -84 -63 c-201 -149 -376 -274 -418 -297 -64 -36 -73 -69 -32 -123 17 -23 40
-59 51 -79 11 -21 37 -49 57 -63 l38 -25 597 0 597 0 33 29 c69 59 96 63 176
26 30 -14 82 -32 115 -41 71 -18 97 -37 97 -70 0 -28 -26 -46 -101 -73 -29
-11 -74 -27 -98 -36 -54 -20 -76 -13 -104 32 l-23 36 -653 -1 c-617 -1 -654
-2 -684 -19 -18 -11 -41 -34 -52 -53 -11 -18 -42 -54 -68 -79 -33 -32 -48 -55
-50 -76 -2 -26 3 -33 40 -50 23 -11 77 -46 120 -78 43 -32 125 -92 183 -134
58 -42 128 -93 155 -113 28 -21 123 -89 212 -153 89 -64 210 -153 269 -197 66
-50 115 -80 131 -80 13 0 39 11 57 25 18 14 40 25 48 25 19 0 51 -36 76 -85
10 -22 30 -59 43 -82 22 -40 23 -45 9 -70 -9 -16 -31 -33 -50 -40 -43 -15
-150 -16 -184 -3 -23 8 -26 15 -26 58 0 58 -17 85 -74 115 -42 22 -153 101
-561 397 -179 131 -282 204 -380 275 -50 35 -97 75 -105 90 -16 30 -44 39
-108 33 -47 -5 -137 -43 -180 -76 l-24 -18 0 -440 0 -439 57 -6 c70 -8 92 -26
75 -60 -16 -31 -98 -120 -125 -136 -27 -17 -80 -16 -113 1 -32 16 -132 132
-132 152 0 7 12 21 26 31 14 10 39 29 55 43 l29 25 1 410 1 409 -28 23 c-15
12 -51 27 -78 34 -28 7 -75 23 -105 37 -34 16 -75 26 -105 26 -44 1 -51 -3
-80 -36 -18 -20 -116 -97 -218 -170 -102 -73 -280 -201 -394 -284 -115 -83
-228 -161 -251 -173 -41 -20 -42 -23 -49 -81 -3 -33 -12 -64 -18 -69 -16 -13
-168 -51 -206 -51 -29 0 -80 36 -80 58 0 5 11 41 25 80 14 39 25 80 25 91 0
21 44 61 67 61 7 0 36 -12 63 -26 61 -32 74 -28 165 46 114 93 710 522 778
560 81 46 87 73 29 134 -22 22 -47 56 -56 73 -34 67 4 64 -844 64 -422 0 -775
0 -785 0 -10 -1 -25 -16 -34 -36 -23 -48 -50 -53 -147 -25 -98 28 -132 44
-146 70 -15 27 22 64 90 90 30 12 77 35 104 52 27 16 64 32 82 35 30 5 38 0
78 -41 l45 -46 724 0 723 0 44 23 c38 18 51 34 82 95 36 69 37 74 23 102 -8
16 -39 43 -72 61 -32 18 -92 58 -133 89 -41 31 -109 81 -150 111 -41 31 -110
81 -152 112 l-78 57 -2440 0 c-2438 0 -2441 0 -2430 -20 13 -24 0 -54 -30 -70
-10 -5 -44 -10 -75 -10 -73 0 -122 -21 -131 -55 -3 -14 -4 -52 -2 -85 8 -105
59 -128 144 -64 56 43 112 54 149 30 53 -35 18 -86 -117 -170 -116 -72 -189
-75 -252 -10 -54 56 -78 116 -86 222 -9 128 -16 134 -154 142 -114 6 -146 21
-146 67 l0 23 -370 0 c-353 0 -370 -1 -370 -18 0 -21 25 -93 64 -187 55 -135
43 -203 -46 -254 -98 -56 -175 -52 -315 16 -117 58 -197 143 -269 287 -48 97
-55 116 -45 135 l12 21 -862 0 -862 0 70 -50 c121 -84 175 -169 153 -236 -15
-43 -99 -120 -163 -148 -101 -45 -183 -60 -322 -60 -109 0 -148 5 -241 28
-193 49 -268 102 -219 156 26 29 71 25 199 -17 97 -31 127 -37 233 -41 113 -4
130 -2 209 22 122 39 160 84 118 144 -21 30 -118 95 -230 153 l-94 49 -2445 0
-2444 0 -3 -57 c-2 -32 0 -80 4 -108 22 -155 23 -141 -5 -159 -61 -41 -107 13
-107 126 0 35 -3 93 -7 131 l-6 67 -1506 0 -1506 0 3 -197 c2 -109 8 -210 13
-225 7 -18 28 -35 64 -52 124 -58 89 -122 -75 -137 -133 -12 -191 -51 -156
-104 23 -35 75 -45 195 -39 90 5 111 3 141 -13 72 -37 72 -110 0 -145 -41 -20
-91 -24 -182 -13 -79 9 -106 3 -147 -31 -53 -44 -38 -99 39 -139 24 -12 57
-15 158 -13 110 2 132 0 166 -17 88 -45 97 -109 21 -152 -57 -32 -110 -37
-183 -18 -126 32 -223 14 -309 -59 -63 -53 -41 -93 79 -152 102 -49 144 -54
238 -29 67 18 101 19 152 3 95 -28 129 -110 68 -162 -52 -43 -102 -51 -201
-32 -96 20 -140 14 -199 -26 -68 -46 -59 -107 20 -148 31 -16 59 -20 134 -20
182 0 284 -69 210 -143 -42 -42 -116 -54 -214 -33 -98 22 -133 17 -220 -31
-122 -66 -140 -105 -73 -163 69 -61 109 -72 231 -65 104 7 109 6 162 -22 60
-30 78 -60 66 -107 -15 -58 -149 -87 -245 -52 -73 27 -120 19 -192 -30 -75
-52 -69 -110 19 -176 70 -53 85 -59 183 -69 94 -9 119 -18 157 -52 43 -39 19
-107 -43 -123 -14 -3 -54 -3 -88 0 -168 19 -164 19 -219 -7 -68 -31 -118 -78
-118 -110 0 -26 47 -75 98 -100 50 -26 126 -46 209 -56 45 -6 108 -19 141 -30
132 -45 263 -145 318 -243 26 -48 29 -62 29 -148 0 -81 -4 -102 -24 -139 -53
-101 -199 -216 -326 -257 -62 -21 -78 -34 -126 -108 l-38 -58 0 -137 c0 -75 3
-141 7 -147 13 -20 50 -34 91 -34 27 0 48 -7 67 -23 36 -31 28 -65 -34 -139
-26 -31 -73 -88 -104 -127 -61 -74 -96 -91 -153 -77 -30 8 -222 181 -231 208
-9 30 20 63 67 77 93 27 89 18 89 220 0 160 2 183 21 226 17 38 19 52 10 72
-10 22 -16 24 -64 21 -49 -3 -53 -5 -63 -37 -6 -19 -21 -43 -34 -53 -22 -18
-44 -19 -371 -16 -328 3 -348 4 -368 22 -34 31 -25 76 19 99 32 17 59 18 331
14 162 -2 305 0 317 4 30 11 28 33 -7 61 -151 121 -152 123 -188 195 -29 60
-36 83 -35 133 1 115 90 249 217 325 72 43 72 69 1 130 -88 75 -98 145 -30
223 20 23 61 57 92 75 48 28 58 38 60 64 3 27 -4 37 -48 74 -116 98 -119 193
-10 280 73 59 71 88 -13 154 -65 52 -85 98 -68 156 14 46 76 113 142 154 47
29 69 52 69 71 0 7 -16 32 -36 55 -67 80 -67 124 1 192 23 23 44 49 48 58 8
25 -16 53 -75 87 -73 41 -136 106 -144 148 -13 68 19 118 117 185 93 63 98 88
30 152 -44 42 -58 84 -40 119 6 13 34 47 61 76 59 63 58 76 -13 142 -41 39
-49 52 -49 82 0 48 31 83 115 133 89 52 102 71 87 136 -7 28 -12 83 -12 123 0
40 -3 121 -7 179 l-6 107 -2434 0 -2433 0 0 -265 0 -265 26 -17 c18 -11 57
-19 118 -23 103 -7 152 -27 162 -65 15 -59 -52 -81 -216 -69 -174 13 -230 3
-230 -42 0 -39 29 -46 163 -39 132 8 176 -1 224 -47 30 -28 29 -53 -3 -83 -42
-39 -109 -48 -229 -29 -97 15 -107 15 -130 0 -31 -21 -32 -40 -1 -71 40 -40
96 -50 266 -47 145 2 158 0 200 -21 29 -15 49 -34 55 -51 11 -33 1 -52 -45
-83 -40 -28 -120 -30 -255 -8 -49 9 -108 13 -130 9 -109 -17 -138 -80 -57
-121 31 -15 57 -18 154 -15 97 2 126 -1 171 -18 92 -34 97 -99 11 -141 -55
-26 -119 -28 -220 -6 -65 15 -90 16 -121 8 -75 -20 -94 -76 -35 -100 17 -7 76
-10 152 -9 109 3 131 0 170 -18 51 -23 80 -49 80 -69 0 -8 -13 -30 -30 -48
-16 -19 -30 -42 -30 -50 0 -16 54 -67 72 -67 5 0 36 -25 68 -55 152 -146 152
-324 -2 -471 -67 -65 -143 -107 -238 -133 -41 -12 -86 -29 -99 -39 -13 -9 -41
-55 -62 -102 -35 -77 -39 -93 -39 -170 0 -47 4 -90 8 -97 12 -19 59 -33 111
-33 98 0 115 -59 35 -125 -27 -22 -76 -66 -109 -97 -113 -106 -172 -106 -285
1 -25 24 -61 55 -80 69 -69 51 -90 75 -90 103 0 54 52 70 149 47 76 -17 81
-10 81 129 0 126 7 110 -74 176 -36 29 -30 57 20 87 55 35 44 55 -61 108 -69
34 -161 125 -195 192 -18 35 -23 62 -24 120 0 89 20 135 92 213 44 46 47 53
52 115 l5 66 55 31 c68 38 74 62 30 123 -16 23 -30 49 -30 59 0 9 27 43 60 75
33 32 60 60 60 64 0 12 -24 51 -48 77 -18 19 -26 38 -26 64 0 30 7 42 47 75
63 53 62 73 -8 133 -48 41 -55 51 -55 83 0 21 9 48 20 62 28 36 25 63 -15 110
-63 75 -37 133 85 195 77 39 97 70 85 132 -5 21 -7 138 -6 261 l3 222 -8916 0
-8916 0 0 -7600z m32661 7499 c31 -7 63 -22 83 -40 l31 -28 -22 -40 c-19 -33
-21 -44 -12 -69 14 -40 -2 -69 -46 -88 -45 -18 -289 -19 -324 -1 -53 27 -53
60 2 101 21 16 43 20 112 20 138 1 106 20 -45 27 -74 3 -147 11 -162 17 -51
21 -55 71 -7 98 30 17 314 19 390 3z m1623 -20 c54 -43 20 -99 -61 -99 -50 0
-83 26 -83 64 0 53 93 76 144 35z m-7302 -56 c23 -21 23 -40 -1 -79 -26 -43
-82 -62 -116 -40 -14 9 -25 24 -25 32 0 28 33 73 64 88 40 20 55 20 78 -1z
m-2235 -272 c101 -75 181 -126 326 -205 32 -18 50 -55 35 -73 -15 -18 -77 -15
-118 5 -86 42 -343 214 -402 270 -34 31 -43 58 -28 77 27 32 66 17 187 -74z
m3244 -147 c11 -13 11 -20 -1 -42 -18 -31 -122 -117 -168 -138 -40 -18 -85 -8
-90 20 -4 19 69 94 142 148 44 32 96 37 117 12z m-1381 -105 c248 -31 522
-131 726 -265 221 -146 378 -337 455 -554 33 -93 34 -98 34 -255 -1 -159 -1
-160 -38 -262 -52 -143 -127 -256 -256 -384 -58 -58 -136 -129 -173 -157 -48
-38 -82 -77 -127 -145 -85 -130 -128 -183 -188 -228 -61 -46 -93 -101 -91
-156 1 -38 -19 -177 -49 -332 -19 -97 -64 -173 -153 -259 -66 -63 -201 -135
-285 -152 -185 -38 -421 48 -561 204 -86 97 -126 186 -184 407 -28 107 -55
211 -61 231 -6 25 -25 50 -60 80 -121 103 -144 126 -176 173 -58 87 -95 128
-228 256 -250 240 -305 332 -377 624 -27 110 27 377 101 500 155 260 374 436
706 568 272 109 641 148 985 106z m-2180 -267 c25 -14 74 -41 110 -60 82 -44
110 -69 110 -99 0 -32 -39 -40 -93 -19 -36 13 -132 66 -225 123 -13 8 -28 26
-35 40 -10 21 -8 27 8 39 25 18 65 10 125 -24z m22895 -21 c16 -19 17 -54 14
-503 -1 -266 -3 -503 -3 -527 -1 -41 2 -47 34 -68 79 -50 76 -47 61 -84 -7
-19 -16 -50 -18 -70 -7 -52 29 -79 105 -79 63 0 92 18 92 57 0 58 37 78 90 48
14 -8 44 -14 68 -15 36 0 49 6 85 39 37 33 171 135 290 219 21 15 57 41 80 58
62 46 387 281 468 339 71 50 124 64 150 38 25 -25 -1 -59 -92 -124 -50 -35
-113 -80 -139 -99 -26 -19 -90 -65 -142 -102 -206 -148 -336 -242 -388 -281
-121 -90 -156 -114 -172 -120 -9 -3 -29 -25 -44 -49 -14 -24 -45 -59 -67 -78
-37 -33 -39 -39 -33 -73 9 -48 64 -106 102 -109 51 -2 68 2 104 27 55 38 76
33 102 -22 l23 -48 757 -1 c595 -1 761 -4 773 -14 19 -16 19 -44 -1 -64 -14
-15 -92 -16 -750 -16 -404 0 -739 -2 -745 -5 -5 -4 -17 -23 -27 -43 -21 -46
-61 -53 -123 -21 -77 39 -171 7 -177 -62 -5 -44 17 -59 84 -59 87 0 98 -44 16
-71 -51 -16 -62 -27 -62 -59 0 -33 13 -45 67 -64 37 -13 119 -70 553 -385 80
-58 179 -129 220 -159 100 -72 120 -91 120 -118 0 -40 -69 -47 -119 -11 -176
124 -749 544 -799 585 -55 45 -69 52 -108 52 -41 0 -45 -3 -58 -35 -12 -28
-20 -35 -43 -35 -49 0 -58 13 -55 79 2 55 0 62 -23 77 -36 24 -122 15 -147
-16 -24 -30 -23 -64 4 -101 23 -30 23 -31 4 -45 -12 -8 -43 -14 -77 -14 -32 0
-60 -4 -63 -8 -3 -5 1 -30 9 -55 11 -36 14 -140 16 -474 1 -406 0 -427 -17
-440 -11 -8 -36 -13 -59 -11 -32 2 -42 8 -50 28 -7 17 -9 167 -5 460 3 268 1
440 -4 448 -11 16 -66 12 -133 -9 -83 -25 -86 38 -5 90 73 46 88 66 74 96 -17
37 -53 55 -125 62 -80 7 -111 -8 -121 -60 -10 -56 -27 -63 -95 -42 -57 17 -58
17 -99 -4 -23 -12 -55 -35 -72 -51 -17 -17 -48 -42 -68 -55 -20 -14 -60 -42
-88 -62 -29 -21 -74 -53 -100 -72 -27 -19 -80 -58 -119 -86 -38 -28 -113 -83
-165 -121 -53 -38 -109 -79 -125 -92 -80 -61 -151 -102 -176 -102 -25 0 -59
22 -59 38 0 18 34 53 82 85 29 20 109 77 178 127 117 85 163 118 400 288 52
37 116 80 142 95 47 27 78 61 78 84 0 7 -17 21 -37 30 -21 10 -39 26 -41 35
-4 23 25 36 115 54 42 8 85 22 95 31 28 26 23 79 -11 113 -44 45 -72 47 -136
11 -30 -17 -64 -31 -75 -31 -22 0 -40 34 -40 75 0 40 -22 53 -77 44 -26 -4
-347 -8 -713 -8 -587 -1 -668 1 -688 15 -12 8 -22 23 -22 33 0 45 -7 45 708
43 373 -2 696 -5 719 -8 23 -4 48 -12 54 -20 14 -17 39 -18 39 -1 0 6 -14 39
-30 72 -40 82 -39 95 8 95 26 0 53 -10 87 -34 66 -44 86 -49 135 -36 56 15 82
43 78 83 -3 28 -11 36 -62 62 -58 29 -60 32 -72 83 -6 29 -13 54 -15 56 -2 1
-26 15 -54 31 -27 16 -93 60 -145 99 -118 86 -185 135 -286 208 -43 31 -160
116 -259 188 -99 72 -212 153 -252 181 -76 52 -97 77 -87 103 16 42 87 28 168
-32 102 -76 206 -152 476 -347 151 -109 318 -230 370 -269 151 -113 156 -115
232 -116 l66 0 36 -50 c21 -29 46 -52 61 -56 46 -12 125 2 148 25 19 19 20 24
8 53 -26 65 -25 77 4 88 14 5 42 10 60 10 42 0 55 20 44 69 -4 20 -9 272 -10
560 -1 494 0 526 17 538 27 19 78 16 99 -6z m-12091 -51 c46 -17 197 -157 236
-217 21 -32 63 -87 94 -123 30 -36 77 -94 103 -130 60 -83 173 -227 238 -306
68 -82 127 -156 300 -374 80 -102 163 -205 183 -230 20 -24 68 -85 107 -135
38 -49 109 -139 157 -200 49 -60 108 -135 132 -165 24 -30 98 -122 163 -205
344 -434 394 -494 427 -515 25 -15 87 -31 199 -50 89 -16 207 -38 262 -49 161
-33 456 -89 505 -96 25 -4 79 -15 120 -26 42 -10 118 -25 170 -33 52 -8 148
-30 213 -50 123 -38 152 -42 177 -26 24 15 -8 59 -72 99 -176 110 -244 159
-258 183 -13 25 -13 29 6 55 42 57 113 49 190 -19 22 -19 86 -67 144 -105 58
-39 155 -106 215 -149 197 -141 234 -157 470 -199 83 -15 197 -37 255 -50 58
-12 137 -28 176 -34 93 -16 134 -41 134 -81 0 -69 -93 -76 -315 -26 -60 14
-195 42 -300 62 l-190 37 -289 -12 c-160 -6 -331 -16 -381 -23 -104 -12 -147
-1 -153 40 -4 28 11 47 60 78 71 45 45 70 -90 85 -48 5 -134 20 -192 34 -58
13 -125 27 -150 30 -25 4 -106 19 -180 35 -74 16 -179 36 -232 44 -54 9 -123
25 -155 36 -78 27 -149 36 -168 20 -26 -22 -16 -49 43 -113 58 -64 118 -137
303 -372 141 -179 291 -368 349 -440 27 -33 104 -130 171 -215 67 -85 174
-220 238 -300 63 -80 147 -185 186 -235 165 -208 319 -403 484 -611 291 -366
587 -740 720 -909 69 -88 156 -189 192 -225 78 -77 94 -102 80 -129 -6 -10
-17 -21 -26 -24 -8 -4 -905 -6 -1992 -7 -1088 0 -3346 -3 -5019 -7 l-3041 -6
-16 23 c-20 29 -16 40 64 140 41 51 79 111 94 150 40 98 27 81 380 525 169
213 583 739 645 820 30 40 71 92 91 116 37 45 265 334 582 738 191 243 311
396 462 586 52 66 132 167 177 224 44 57 103 128 129 158 55 60 62 89 24 103
-28 11 -77 3 -154 -25 -24 -8 -89 -22 -145 -31 -55 -8 -135 -24 -176 -34 -41
-10 -109 -23 -150 -29 -41 -6 -124 -22 -185 -36 -60 -13 -206 -43 -324 -65
-141 -27 -231 -50 -262 -66 -58 -29 -227 -146 -323 -224 -38 -30 -80 -64 -93
-74 -35 -27 -115 -33 -148 -12 -47 31 -24 81 60 132 51 30 85 67 85 91 0 20
-5 23 -38 23 -21 0 -76 -11 -122 -24 -47 -14 -103 -28 -125 -31 -22 -4 -101
-20 -175 -35 -74 -16 -175 -35 -225 -44 -49 -8 -153 -28 -230 -45 -212 -47
-285 -39 -285 30 0 34 41 65 100 75 19 3 112 21 205 39 277 53 444 84 547 100
105 16 148 31 148 51 0 18 -26 30 -85 39 -102 14 -150 60 -110 105 27 29 87
33 255 16 85 -9 273 -21 417 -27 253 -11 266 -11 345 10 46 11 126 27 178 35
52 8 147 26 210 40 170 36 359 73 494 96 65 11 144 27 175 35 31 8 103 21 160
29 163 25 164 25 426 361 112 144 223 284 365 464 58 73 125 159 150 191 25
32 117 149 205 260 88 111 180 228 205 260 25 32 83 107 130 166 47 60 102
133 124 164 21 30 63 82 92 115 29 33 130 157 223 275 92 118 193 243 223 276
31 34 62 71 70 82 16 24 65 52 90 52 9 0 28 -4 42 -10z m-24310 -160 c345 -29
744 -126 1062 -258 290 -121 598 -327 811 -544 139 -141 234 -271 317 -434 51
-101 120 -307 135 -404 54 -348 -19 -686 -216 -992 -217 -337 -569 -625 -1002
-817 -359 -160 -783 -259 -1215 -283 -477 -26 -934 36 -1376 188 -535 184
-965 490 -1222 872 -117 173 -203 374 -235 545 -27 140 -24 419 5 552 25 114
86 279 139 375 56 100 167 261 207 299 51 49 62 89 41 151 -13 40 -14 57 -5
84 28 87 114 165 238 217 71 30 86 32 194 34 l117 1 108 56 c385 199 818 319
1308 361 92 8 479 6 589 -3z m17704 -162 c17 -17 15 -42 -5 -60 -19 -17 -182
-58 -227 -58 -37 0 -66 17 -66 39 0 28 17 37 109 60 47 12 87 23 89 26 10 10
88 5 100 -7z m-4317 -496 c48 -40 -3 -74 -145 -97 -121 -20 -176 -8 -176 36 0
23 22 35 85 44 28 3 73 13 100 20 70 19 109 18 136 -3z m4184 -111 c110 -4
208 -11 217 -15 30 -14 33 -47 7 -69 -20 -16 -33 -18 -84 -13 -33 4 -139 10
-235 15 -188 8 -240 22 -240 61 0 30 29 41 85 34 28 -3 140 -9 250 -13z
m24612 -32 c18 -16 16 -43 -4 -68 -15 -18 -117 -76 -356 -205 -58 -32 -81 -71
-52 -92 52 -38 156 -7 321 97 71 44 181 108 244 142 63 33 135 71 159 84 51
27 97 30 129 7 54 -37 8 -84 -160 -163 -174 -82 -180 -85 -203 -116 l-20 -27
20 -15 c15 -11 37 -14 90 -10 101 7 136 24 544 269 131 78 177 94 226 78 18
-6 36 -18 40 -27 14 -38 -21 -63 -288 -204 -88 -47 -118 -79 -96 -105 10 -13
26 -15 69 -11 73 7 165 44 313 130 67 38 146 81 175 94 29 13 90 44 135 70 68
39 91 47 133 47 51 0 84 -15 84 -39 0 -40 -116 -111 -305 -187 -53 -20 -105
-63 -105 -85 0 -20 35 -33 93 -33 72 0 116 17 255 97 64 37 178 98 252 136
114 59 143 70 187 71 29 1 57 -4 64 -11 16 -16 15 -62 -3 -79 -7 -8 -74 -39
-147 -69 -130 -53 -181 -84 -181 -112 0 -23 51 -35 123 -28 75 8 122 -5 132
-36 8 -25 -10 -56 -37 -65 -13 -4 -354 -9 -758 -9 -404 -1 -763 -5 -796 -10
-38 -5 -93 -3 -141 4 -113 16 -295 16 -330 -1 -44 -21 -43 -62 6 -138 23 -35
41 -68 41 -74 0 -6 14 -31 30 -56 17 -25 37 -65 46 -90 17 -46 101 -226 159
-340 18 -36 36 -76 40 -90 3 -14 28 -70 55 -125 61 -125 140 -295 140 -301 0
-6 113 -244 154 -324 19 -36 37 -76 41 -90 8 -27 96 -216 149 -320 19 -36 37
-76 41 -90 4 -14 31 -74 60 -135 78 -162 135 -285 135 -291 0 -3 24 -56 54
-117 30 -62 80 -168 111 -237 52 -116 96 -209 181 -385 35 -73 155 -333 194
-420 12 -27 54 -117 92 -200 38 -82 92 -199 120 -260 27 -60 67 -144 88 -185
21 -41 43 -93 50 -115 17 -54 32 -70 125 -125 66 -39 234 -159 413 -296 38
-29 45 -77 13 -94 -50 -26 -113 -6 -185 60 -66 60 -153 112 -184 108 -23 -3
-27 -7 -25 -33 1 -16 24 -60 51 -100 45 -64 93 -160 233 -470 28 -60 68 -144
89 -185 21 -41 41 -86 45 -100 12 -41 105 -224 118 -232 32 -21 84 -27 151
-17 183 25 448 -72 593 -219 124 -126 153 -266 87 -409 -20 -42 -138 -164
-199 -205 -22 -15 -89 -48 -149 -73 -61 -24 -114 -49 -120 -55 -7 -7 -11 -69
-11 -163 0 -84 -4 -168 -9 -189 -6 -30 -4 -40 13 -57 24 -24 44 -19 110 24 76
51 161 43 161 -14 0 -31 -13 -44 -115 -116 -82 -58 -179 -169 -214 -247 -31
-70 -51 -88 -99 -88 -50 0 -78 32 -118 138 -54 141 -86 200 -148 277 -31 37
-56 76 -56 86 0 31 36 59 76 59 50 0 70 -14 110 -75 35 -55 75 -85 114 -85 20
0 20 3 14 203 -8 251 -3 243 -151 262 -115 15 -219 54 -314 118 -80 54 -133
56 -224 9 -65 -33 -153 -68 -284 -113 -110 -37 -121 -54 -76 -107 30 -36 32
-68 5 -82 -11 -6 -55 -15 -98 -20 -42 -5 -120 -16 -172 -25 -194 -30 -270 -12
-270 66 0 13 29 54 72 101 74 82 135 164 189 256 38 65 62 82 113 82 81 0 97
-53 41 -128 -38 -49 -42 -84 -12 -90 10 -2 78 21 150 52 73 31 181 75 242 99
136 53 150 70 121 144 -29 74 -31 133 -7 213 19 60 32 81 88 141 37 38 94 86
127 105 75 44 106 72 106 96 0 21 -26 76 -70 144 -16 26 -37 70 -46 98 -9 28
-34 85 -55 126 -74 146 -139 285 -139 296 0 6 -15 40 -34 75 -18 35 -43 96
-54 135 -23 74 -41 98 -83 109 -32 8 -43 -5 -59 -73 -20 -86 -80 -116 -137
-68 -39 34 -37 81 11 233 35 112 38 130 34 215 -2 77 -7 98 -26 125 -13 18
-31 56 -41 86 -10 29 -35 85 -54 123 -64 125 -137 279 -137 289 0 5 -22 55
-50 110 -27 55 -74 156 -106 225 -67 148 -139 301 -200 425 -24 50 -44 94 -44
100 0 9 -76 171 -134 285 -19 36 -37 76 -41 90 -4 14 -29 70 -55 125 -69 143
-125 264 -154 333 -14 33 -34 75 -45 93 -11 19 -33 66 -49 104 -34 83 -129
286 -243 520 -22 44 -39 84 -39 89 0 5 -24 59 -54 120 -29 61 -75 158 -101
216 -26 58 -67 146 -90 195 -24 50 -71 151 -105 225 -33 74 -76 164 -94 200
-19 36 -39 89 -46 118 -11 47 -37 82 -62 82 -4 0 -28 -18 -53 -40 -53 -46 -86
-57 -120 -42 -30 14 -46 68 -35 119 4 21 11 82 15 136 6 82 4 102 -10 123 -29
44 -73 55 -172 45 -99 -10 -583 -7 -626 4 -29 8 -49 39 -39 63 2 7 57 40 122
72 64 32 169 89 233 127 124 73 247 145 310 181 43 23 105 29 138 12 26 -14
24 -52 -3 -77 -21 -18 -156 -94 -291 -163 -121 -62 -129 -130 -14 -117 53 6
244 95 352 163 28 17 84 51 125 74 41 23 103 60 138 82 102 66 168 80 209 47z
m-28673 -421 c24 -38 -47 -91 -121 -91 -82 0 -96 55 -25 93 47 25 130 24 146
-2z m3460 -93 c132 -48 138 -51 134 -83 -2 -19 -11 -30 -32 -37 -23 -8 -46 -3
-125 24 -137 48 -176 82 -139 119 20 20 57 14 162 -23z m-12682 -55 c51 -24
48 -78 -5 -108 -27 -14 -56 -17 -174 -15 -172 2 -202 13 -203 75 0 28 16 42
69 59 39 13 281 4 313 -11z m1105 -6 c36 -27 41 -64 12 -90 -19 -17 -39 -19
-223 -22 -187 -2 -203 -1 -233 18 -59 36 -37 90 43 109 21 5 114 9 206 8 152
-2 169 -4 195 -23z m841 -1 c34 -25 40 -63 13 -87 -29 -27 -157 -42 -233 -28
-66 12 -98 34 -98 66 1 56 58 78 193 73 79 -3 104 -8 125 -24z m-1580 -48 c12
-9 36 -37 54 -63 17 -26 53 -72 78 -102 26 -30 53 -66 59 -78 26 -50 -8 -92
-89 -107 -19 -3 -44 -13 -55 -21 -19 -14 -20 -30 -25 -387 -3 -205 -2 -382 2
-394 5 -16 24 -27 76 -43 38 -11 75 -27 82 -35 19 -23 4 -61 -37 -97 -21 -18
-70 -67 -109 -108 -67 -70 -75 -75 -113 -74 -46 2 -94 33 -138 91 -16 20 -61
71 -100 114 -40 43 -73 84 -73 91 1 42 48 62 130 54 49 -5 70 -3 77 6 7 8 12
145 15 371 4 309 3 361 -10 374 -9 9 -23 12 -36 8 -59 -17 -126 -17 -151 -1
-39 26 -33 59 24 116 26 26 83 99 126 162 44 62 86 118 94 125 22 17 92 16
119 -2z m37188 -538 l27 -24 0 -198 1 -198 -28 -23 c-37 -32 -89 -32 -121 1
-28 28 -27 14 -25 245 1 174 1 175 26 198 33 29 85 29 120 -1z m8 -796 c18
-19 19 -34 19 -230 0 -229 -1 -232 -58 -251 -26 -9 -41 -8 -68 3 -19 8 -38 20
-42 27 -11 18 -6 420 6 442 22 42 105 47 143 9z m-24953 -69 c148 -8 179 -19
179 -68 0 -42 -43 -59 -140 -57 -114 3 -163 -4 -189 -28 -25 -23 -27 -65 -5
-97 18 -25 66 -29 140 -11 119 30 185 -60 76 -104 -21 -8 -65 -21 -99 -27 -34
-7 -75 -20 -91 -30 -29 -18 -30 -20 -34 -115 -3 -92 -4 -98 -31 -121 -37 -32
-115 -34 -142 -4 -20 22 -21 50 -6 136 6 34 10 153 9 277 l-3 219 29 25 c27
23 34 25 100 19 39 -4 132 -10 207 -14z m-12600 -65 c28 -18 34 -29 34 -57 0
-54 -22 -60 -233 -60 -204 0 -246 9 -258 55 -7 28 15 61 51 76 11 4 99 8 196
8 167 1 178 0 210 -22z m1095 7 c38 -18 52 -51 35 -82 -20 -38 -57 -43 -283
-40 -196 3 -218 5 -237 22 -33 30 -28 72 12 96 29 18 50 20 235 20 167 0 210
-3 238 -16z m1164 3 c13 -7 31 -25 40 -40 15 -27 14 -29 -18 -58 l-33 -30
-224 3 c-205 3 -225 5 -244 22 -34 31 -25 77 19 98 30 15 64 18 235 18 140 0
207 -4 225 -13z m1500 -5 c28 -13 36 -24 38 -49 3 -28 -2 -36 -30 -53 -31 -19
-50 -20 -275 -20 -133 0 -253 4 -267 10 -37 14 -60 53 -46 79 24 46 50 50 305
51 209 0 245 -2 275 -18z m1394 4 c57 -24 60 -83 6 -111 -23 -12 -77 -15 -277
-15 -254 0 -283 4 -306 41 -15 25 0 67 31 83 39 22 496 23 546 2z m1064 -6
c42 -26 44 -69 6 -99 -25 -20 -39 -21 -243 -21 -179 0 -220 3 -239 16 -51 35
-49 79 6 108 21 12 71 15 232 16 187 0 208 -2 238 -20z m23067 -26 c189 -8
215 -16 215 -69 0 -30 -20 -41 -100 -54 -72 -12 -100 -32 -100 -73 0 -16 18
-93 39 -171 49 -177 71 -274 71 -309 0 -49 -53 -79 -112 -62 -48 14 -67 49
-82 149 -7 50 -25 125 -39 166 -16 45 -30 116 -35 173 -12 127 -14 129 -143
137 -84 5 -104 9 -122 27 -17 18 -19 26 -11 49 15 43 59 54 189 48 61 -3 164
-8 230 -11z m-661 -123 c59 -45 108 -110 127 -168 10 -30 8 -40 -13 -81 -14
-27 -43 -60 -69 -79 -92 -67 -105 -80 -93 -100 6 -10 44 -36 85 -58 76 -42
229 -145 247 -167 38 -49 10 -98 -56 -98 -40 0 -110 38 -147 80 -29 33 -95 75
-139 90 -33 10 -40 10 -54 -4 -14 -14 -14 -22 -4 -61 24 -92 11 -115 -67 -115
-90 0 -130 78 -141 280 -5 88 -13 140 -28 175 -12 30 -23 88 -27 146 -11 145
3 163 150 193 115 24 164 17 229 -33z m-515 -344 c25 -21 29 -52 16 -146 -16
-117 -49 -203 -96 -253 -31 -32 -42 -38 -78 -38 -23 0 -59 9 -80 20 -54 27
-156 142 -192 216 -54 109 -35 174 50 174 49 0 75 -28 95 -105 18 -69 53 -108
94 -103 37 4 52 40 52 126 0 80 10 109 43 122 25 10 75 3 96 -13z m-17344
-148 c53 -15 126 -64 153 -103 18 -26 22 -46 22 -107 0 -86 15 -181 36 -220 7
-15 35 -42 62 -62 27 -19 51 -44 54 -55 9 -33 -14 -66 -57 -80 -58 -19 -98 -8
-138 38 -57 66 -91 69 -165 11 -49 -38 -73 -44 -123 -31 -56 15 -152 107 -175
166 -22 57 -15 176 15 254 30 80 118 161 211 193 25 9 63 7 105 -4z m26788
-148 c19 -19 20 -33 20 -283 0 -145 -3 -273 -7 -284 -17 -55 -144 -57 -162 -2
-4 14 -7 358 -4 526 0 13 12 35 26 49 22 21 32 25 66 20 23 -3 50 -14 61 -26z
m-24708 -3 c30 -13 41 -48 26 -77 -20 -36 -73 -43 -356 -48 -246 -4 -273 -2
-305 14 -47 24 -53 64 -14 90 25 16 59 19 274 23 135 3 268 7 297 8 29 1 64
-3 78 -10z m-1190 -31 c21 -23 22 -30 12 -62 -10 -33 -8 -38 22 -69 38 -39 37
-60 -2 -90 -25 -19 -40 -21 -147 -19 -136 2 -180 16 -180 59 0 13 7 36 16 50
16 23 16 27 -1 57 -41 76 10 110 159 105 92 -4 100 -5 121 -31z m14560 -213
c101 -29 159 -59 222 -117 104 -96 71 -186 -101 -274 -27 -14 -71 -32 -98 -39
-26 -8 -59 -25 -73 -37 l-26 -22 10 -190 c6 -105 14 -238 18 -298 6 -103 5
-108 -17 -132 -33 -35 -101 -35 -135 0 -23 22 -25 32 -25 107 0 46 -5 136 -11
202 -5 65 -12 196 -14 290 -3 94 -7 234 -10 311 -6 164 2 200 49 221 38 17 87
12 211 -22z m3565 -39 c34 -18 47 -50 28 -72 -31 -38 -71 -43 -300 -42 -325 1
-700 -18 -923 -46 -250 -32 -839 -55 -898 -36 -68 23 -83 81 -27 111 11 6 97
10 202 10 209 0 550 21 748 45 319 38 1114 59 1170 30z m-17581 -59 c52 -50
77 -53 160 -21 85 34 119 30 193 -19 65 -44 95 -45 168 -6 30 17 68 30 83 30
77 0 165 -72 229 -189 23 -40 63 -98 90 -129 74 -85 63 -142 -30 -142 -42 0
-50 4 -90 48 -50 52 -122 158 -122 178 0 7 -14 29 -31 49 -40 45 -92 49 -129
10 -21 -22 -23 -34 -22 -94 2 -64 0 -71 -24 -90 -35 -28 -86 -27 -119 2 -22
19 -29 36 -39 109 -7 48 -19 94 -26 103 -19 23 -73 29 -107 11 -45 -23 -57
-62 -49 -157 6 -79 6 -80 -23 -109 -45 -45 -124 -40 -151 10 -6 11 -19 71 -29
134 -18 110 -35 156 -72 205 -25 31 -24 66 2 92 32 32 91 21 138 -25z m14976
-20 c39 -17 53 -52 35 -86 -7 -14 -9 -39 -6 -64 4 -24 4 -50 0 -59 -11 -30
-92 -52 -191 -52 -84 0 -94 2 -118 25 -23 21 -26 30 -21 63 6 33 2 44 -24 73
-16 19 -30 41 -30 49 0 19 33 48 63 57 45 13 256 9 292 -6z m-25989 -147 c63
-30 69 -75 21 -140 -17 -23 -19 -34 -11 -47 9 -14 29 -17 113 -19 113 -2 151
-16 151 -56 -1 -57 -36 -67 -234 -67 -163 0 -214 8 -248 38 -25 21 -22 66 7
115 22 38 23 45 10 67 -38 66 -39 69 -24 86 38 46 144 58 215 23z m-8325 -38
c22 -18 24 -26 24 -123 0 -79 4 -110 18 -135 23 -42 22 -75 -5 -126 -20 -38
-22 -59 -24 -242 -2 -110 -3 -213 -4 -229 -1 -42 23 -72 81 -101 27 -14 105
-65 172 -114 270 -194 429 -309 567 -410 80 -59 174 -127 210 -153 36 -25 87
-64 115 -87 42 -35 56 -41 96 -41 39 0 53 6 90 38 41 36 200 153 454 335 61
43 128 96 150 117 90 86 109 83 284 -35 78 -53 186 -128 239 -168 54 -39 143
-103 196 -142 165 -118 267 -193 356 -260 156 -119 305 -226 345 -250 24 -14
66 -26 105 -30 36 -3 73 -13 83 -22 20 -19 22 -52 5 -76 -13 -16 -120 -92
-290 -204 -124 -82 -127 -103 -21 -172 105 -68 623 -446 689 -503 101 -86 164
-99 164 -33 0 21 -12 51 -35 84 -40 57 -44 92 -15 121 25 25 95 27 128 4 33
-23 70 -102 93 -202 21 -90 55 -160 114 -238 19 -25 35 -52 35 -61 0 -8 -13
-28 -29 -44 -25 -24 -37 -29 -80 -29 -42 0 -70 9 -149 49 -74 38 -129 56 -232
80 -74 17 -155 33 -180 36 -25 3 -60 14 -78 25 -61 37 -54 75 18 100 82 29 78
55 -20 117 -61 40 -497 355 -573 415 -74 58 -119 53 -202 -22 -16 -15 -51 -39
-77 -54 -84 -48 -83 -87 5 -143 23 -14 229 -161 457 -326 228 -166 534 -387
680 -492 232 -168 546 -395 1035 -750 430 -312 538 -388 580 -406 44 -20 56
-20 288 -11 133 5 271 9 307 9 36 0 207 3 380 7 863 18 854 18 879 4 33 -18
45 -40 38 -70 -12 -46 -45 -53 -254 -54 -229 -2 -210 6 -393 -159 -67 -60
-135 -120 -152 -132 -41 -30 -110 -31 -138 -3 -41 41 -23 73 86 155 85 65 107
97 82 122 -15 14 -34 15 -170 6 -103 -7 -163 -15 -183 -25 -35 -19 -181 -158
-296 -284 -44 -49 -94 -97 -109 -107 -38 -24 -105 -25 -130 -2 -41 37 -28 60
126 216 80 81 144 154 142 161 -10 30 -51 37 -185 28 -109 -6 -138 -12 -167
-30 -41 -25 -311 -301 -367 -376 -54 -71 -103 -90 -164 -62 -28 13 -40 45 -31
82 3 13 72 90 154 172 82 82 151 156 155 166 21 58 -106 74 -205 25 -40 -20
-104 -78 -258 -233 -113 -114 -219 -213 -237 -220 -69 -30 -135 -5 -135 50 0
22 22 49 115 137 64 60 135 126 159 145 24 20 51 49 62 66 18 28 18 30 1 48
-27 29 -124 27 -191 -4 -28 -13 -116 -79 -195 -147 -206 -175 -296 -251 -331
-276 -70 -51 -175 -9 -149 59 5 13 78 78 162 143 186 146 219 177 219 204 0
47 -100 52 -182 10 -24 -12 -85 -54 -138 -93 -52 -40 -153 -114 -225 -164 -71
-51 -148 -106 -169 -122 -83 -64 -199 -20 -156 59 12 24 160 132 274 201 53
33 97 66 106 83 14 26 14 29 -5 43 -16 13 -37 15 -100 11 -142 -9 -165 -24
-490 -302 -71 -61 -141 -119 -155 -128 -44 -31 -133 -16 -145 25 -14 42 -7 49
201 216 44 34 96 76 117 93 20 17 37 39 37 49 0 34 -32 41 -147 34 -112 -7
-188 -29 -199 -58 -3 -8 -56 -55 -117 -104 -126 -99 -343 -296 -351 -318 -19
-48 -138 -72 -176 -34 -42 42 -32 57 158 235 57 53 136 120 177 150 106 79
109 120 8 119 -94 0 -275 -15 -315 -25 -35 -9 -343 -241 -471 -355 -50 -45
-97 -61 -142 -50 -33 8 -50 42 -37 71 11 23 173 163 257 221 25 17 54 39 65
49 41 37 15 75 -50 75 -43 0 -67 -14 -125 -72 -27 -28 -86 -76 -130 -108 -44
-31 -126 -101 -183 -154 -56 -53 -114 -101 -128 -106 -41 -16 -81 -11 -109 13
-43 37 -28 64 94 165 58 49 138 112 177 140 80 58 94 80 67 99 -13 10 -63 12
-223 8 -113 -3 -221 -8 -240 -11 -25 -4 -55 -25 -115 -83 -119 -114 -198 -179
-241 -197 -48 -20 -99 -11 -120 22 -25 37 -7 65 76 119 152 101 146 145 -20
145 -129 0 -176 -14 -240 -75 -136 -127 -281 -243 -314 -249 -43 -8 -84 8 -95
36 -16 44 7 75 98 138 96 66 125 105 95 127 -23 17 -243 16 -296 0 -39 -12
-161 -113 -308 -253 -125 -119 -184 -141 -236 -89 -44 44 -37 55 148 215 77
66 124 114 126 128 2 14 -9 38 -28 62 -46 58 -50 84 -34 207 12 88 13 125 3
198 -8 67 -9 105 0 149 16 87 14 114 -9 126 -31 17 -79 -3 -126 -51 -21 -22
-91 -84 -154 -137 -63 -52 -135 -115 -160 -138 -25 -24 -58 -48 -73 -53 -77
-29 -136 9 -111 72 13 35 461 418 540 463 33 19 69 43 79 54 23 25 33 123 15
145 -19 23 -62 18 -107 -12 -45 -31 -185 -147 -276 -230 -66 -60 -108 -73
-156 -49 -42 22 -43 71 -3 108 46 44 193 158 337 263 199 144 213 158 221 211
9 59 -7 94 -41 94 -42 0 -59 -14 -223 -176 -162 -160 -219 -200 -267 -188 -36
9 -58 44 -46 75 21 55 426 426 513 470 45 23 68 63 68 118 0 30 -5 43 -21 51
-38 21 -76 1 -181 -97 -141 -130 -173 -153 -218 -153 -97 0 -98 79 -1 157 280
227 413 356 426 412 9 40 -16 81 -48 81 -33 0 -59 -22 -207 -173 -132 -134
-136 -137 -178 -137 -61 0 -82 14 -82 53 0 28 20 52 170 200 141 140 180 173
232 197 91 41 101 55 106 154 4 75 2 85 -14 94 -42 22 -74 2 -213 -138 -115
-117 -142 -139 -175 -146 -22 -4 -51 -3 -65 2 -27 10 -48 51 -38 76 5 15 293
283 413 386 94 80 119 152 52 152 -23 0 -45 -15 -96 -63 -102 -97 -118 -107
-171 -107 -53 0 -71 13 -71 49 0 18 27 51 104 125 111 108 233 250 260 303 20
39 31 112 22 147 -16 65 -87 36 -192 -79 -88 -97 -115 -115 -174 -115 -37 0
-80 26 -80 48 1 32 26 62 123 148 323 285 353 320 327 385 -10 23 -19 29 -42
29 -49 0 -80 -24 -225 -174 -77 -80 -153 -150 -167 -156 -65 -24 -116 -1 -116
53 0 24 17 47 88 119 48 50 146 141 217 203 175 152 265 246 265 278 0 52 -52
72 -108 43 -15 -8 -69 -58 -121 -110 -98 -100 -142 -125 -195 -112 -31 8 -50
40 -42 71 3 13 70 81 148 151 232 209 308 286 308 315 0 48 -43 63 -99 34 -16
-8 -66 -55 -112 -104 -46 -49 -97 -94 -112 -100 -67 -26 -117 -5 -117 48 0 29
84 116 307 320 68 62 106 104 113 127 8 22 9 69 4 137 -7 111 3 169 34 187 29
17 98 12 123 -9z m5251 -58 c30 -31 18 -70 -28 -89 -20 -8 -85 -19 -146 -25
-61 -5 -125 -16 -143 -25 -43 -20 -60 -57 -43 -92 22 -45 51 -53 169 -46 123
8 149 0 149 -46 0 -45 -31 -59 -171 -74 -96 -11 -125 -18 -136 -32 -19 -26
-16 -42 11 -69 29 -29 95 -40 156 -26 68 16 136 14 154 -5 40 -39 1 -97 -72
-108 -20 -3 -109 -8 -197 -12 -147 -6 -162 -5 -183 12 -32 27 -42 101 -47 346
-4 196 -3 208 16 232 37 47 72 58 203 61 67 2 135 8 151 14 48 17 133 8 157
-16z m30924 -19 c30 -29 27 -58 -12 -115 -31 -46 -118 -295 -133 -385 -7 -38
-20 -83 -30 -100 -10 -17 -26 -55 -36 -85 -25 -76 -42 -97 -86 -110 -32 -10
-46 -9 -83 5 -76 29 -195 170 -314 371 -22 39 -63 93 -91 122 -62 64 -72 95
-40 129 18 19 33 24 70 24 57 0 98 -30 131 -94 11 -22 33 -56 48 -76 16 -19
52 -78 80 -130 63 -115 79 -133 120 -133 48 0 60 20 70 114 8 80 72 284 116
372 57 112 133 149 190 91z m-28359 -121 c41 -19 58 -51 49 -88 -7 -28 -41
-47 -115 -66 -80 -20 -136 -109 -95 -150 36 -35 73 -34 147 5 93 50 167 46
167 -8 0 -35 -32 -69 -97 -101 -144 -71 -251 -72 -334 -3 -55 46 -66 132 -28
233 24 65 107 156 164 181 41 18 100 17 142 -3z m-901 -22 c59 -26 94 -26 169
0 79 28 128 16 190 -46 50 -50 66 -95 68 -196 2 -79 -21 -122 -68 -127 -72 -9
-100 27 -90 114 9 67 1 89 -35 104 -45 19 -72 -5 -104 -88 -43 -112 -81 -130
-191 -91 -64 22 -65 22 -79 3 -8 -10 -17 -31 -20 -47 -9 -46 -49 -77 -98 -77
-86 0 -114 51 -99 180 12 94 63 240 92 260 61 42 182 47 265 11z m-782 -81 c8
-8 20 -53 26 -100 12 -85 12 -85 -14 -106 -27 -24 -142 -54 -206 -54 -22 0
-57 7 -77 15 -35 15 -36 16 -30 62 5 45 3 50 -34 83 -42 40 -44 71 -5 93 45
26 316 31 340 7z m38560 -99 c19 -19 20 -33 19 -282 -1 -253 -2 -262 -22 -283
-30 -29 -102 -29 -131 0 -20 20 -21 31 -22 282 -1 277 0 283 47 303 30 13 86
2 109 -20z m-41341 -194 c37 -24 37 -70 0 -94 -23 -15 -50 -18 -158 -18 -162
0 -185 -10 -185 -81 0 -37 5 -51 31 -76 l30 -31 118 7 c130 8 167 -1 177 -41
16 -62 -27 -85 -173 -93 -105 -5 -117 -8 -134 -29 -24 -29 -24 -39 1 -92 44
-97 17 -159 -67 -159 -51 1 -73 12 -92 48 -17 32 -41 164 -41 225 0 28 -4 78
-9 111 -31 202 -33 233 -18 263 32 61 125 82 342 80 126 -2 155 -5 178 -20z
m38863 -6 c22 -10 57 -33 78 -52 37 -32 38 -35 33 -85 -9 -83 -3 -87 154 -95
163 -8 244 -23 317 -55 159 -70 169 -136 35 -226 -134 -90 -257 -141 -588
-242 -93 -29 -180 -58 -192 -64 -13 -7 -47 -46 -78 -87 -85 -116 -191 -175
-283 -159 -59 9 -130 34 -189 65 -62 33 -101 36 -164 13 -24 -8 -86 -24 -137
-34 -51 -11 -117 -27 -145 -35 -29 -8 -97 -21 -153 -29 -151 -20 -204 -54
-204 -129 0 -52 -24 -126 -73 -222 -211 -419 -859 -708 -1474 -657 -355 29
-598 108 -852 277 -125 83 -163 92 -239 59 -40 -18 -198 -57 -412 -103 -74
-16 -162 -36 -195 -44 -33 -9 -85 -18 -115 -22 -30 -4 -93 -15 -140 -26 -113
-25 -505 -85 -652 -100 -64 -6 -181 -9 -260 -7 -139 3 -145 4 -216 37 -79 37
-102 60 -102 101 0 27 18 51 62 86 37 29 52 62 37 80 -25 31 -96 10 -167 -49
-45 -38 -123 -67 -176 -67 -41 1 -101 29 -154 73 -52 44 -84 54 -192 61 -101
6 -195 33 -270 78 -100 60 -94 108 26 189 192 129 445 219 1049 373 333 85
618 150 840 193 44 8 125 26 180 39 55 13 142 30 194 39 52 9 131 25 175 35
45 11 135 26 201 35 66 9 138 25 161 34 25 12 88 66 165 143 124 126 185 172
324 248 158 86 373 155 600 191 121 20 439 17 550 -5 170 -33 296 -67 403
-110 59 -24 121 -47 139 -50 31 -7 171 27 375 89 42 13 107 29 145 35 37 7
109 23 158 36 50 13 131 28 182 34 50 5 129 19 175 30 46 10 135 26 198 35 63
8 149 22 190 31 102 21 241 31 455 32 155 1 186 -1 221 -17z m-24323 -203 c65
-30 87 -66 87 -137 0 -51 28 -78 84 -85 91 -10 357 -26 444 -26 102 0 150 -14
176 -51 15 -21 16 -115 16 -1024 l0 -1000 -25 -37 c-40 -59 -108 -85 -255 -98
-69 -6 -132 -13 -140 -15 -9 -3 -66 -9 -128 -14 -132 -11 -156 -22 -173 -83
-23 -85 -30 -96 -70 -112 -35 -14 -406 -16 -3661 -16 -4058 0 -3679 -7 -3764
74 l-44 43 0 75 c0 61 -4 78 -19 92 -26 23 -101 33 -381 49 -247 14 -291 24
-318 68 -10 16 -13 213 -13 971 0 900 1 951 18 971 36 40 69 45 343 52 146 4
282 11 302 16 53 13 68 41 68 120 0 63 2 68 40 111 22 25 59 55 82 67 l42 21
3616 -3 3615 -2 58 -27z m26782 -584 c34 -13 41 -54 40 -220 -1 -89 -5 -167
-10 -174 -4 -6 -23 -19 -42 -27 -42 -17 -97 -3 -114 28 -8 16 -13 182 -10 337
2 49 75 79 136 56z m12 -1088 l27 -24 1 -152 c0 -89 -4 -161 -10 -174 -13 -25
-70 -46 -108 -39 -49 9 -55 33 -59 206 l-3 159 28 24 c37 32 87 32 124 0z
m-21356 -232 c177 -53 340 -184 485 -389 64 -90 171 -292 179 -339 14 -72 82
-95 173 -56 75 32 235 76 431 120 389 86 755 101 955 39 72 -22 198 -102 248
-157 42 -47 78 -137 78 -195 -1 -89 -43 -218 -105 -323 -121 -203 -369 -486
-518 -594 -47 -33 -65 -65 -54 -95 4 -8 30 -26 59 -41 68 -34 233 -133 322
-193 l70 -46 115 0 c106 0 121 -2 172 -28 57 -28 139 -105 139 -131 0 -7 -7
-30 -16 -51 -20 -49 -12 -77 33 -117 143 -126 233 -228 362 -408 85 -119 103
-258 48 -367 -36 -70 -147 -171 -237 -215 -171 -84 -345 -111 -735 -111 -274
-1 -466 11 -610 38 -44 8 -140 24 -214 35 -74 11 -160 27 -190 35 -31 8 -101
22 -156 31 -55 9 -122 25 -150 35 -87 33 -153 20 -182 -34 -8 -17 -23 -55 -34
-86 -19 -59 -54 -125 -126 -238 -24 -37 -43 -74 -43 -83 0 -8 9 -35 20 -59 33
-72 24 -105 -45 -164 -57 -48 -110 -73 -218 -101 -51 -14 -116 -38 -143 -53
-108 -64 -210 -84 -319 -64 -76 14 -240 93 -325 157 -173 130 -367 384 -426
556 -28 82 -38 96 -81 115 -34 14 -31 15 -148 -30 -59 -22 -244 -75 -290 -82
-22 -4 -82 -18 -133 -31 -51 -12 -168 -33 -260 -45 -217 -28 -501 -23 -625 10
-160 42 -295 138 -347 246 -66 137 3 344 209 626 65 88 289 319 384 396 97 78
94 97 -26 157 -34 18 -107 61 -162 96 -161 103 -161 103 -230 94 -116 -14
-156 -10 -228 25 -84 40 -147 98 -147 134 0 15 5 46 12 70 6 24 8 55 5 69 -4
15 -48 62 -109 116 -306 269 -441 547 -353 727 29 61 114 137 215 193 75 42
276 99 416 117 218 29 753 7 999 -40 45 -8 141 -24 215 -34 150 -22 401 -73
469 -96 109 -37 139 -14 201 146 137 357 382 620 660 710 73 24 236 25 311 3z
m14308 -489 c119 -60 154 -82 166 -105 24 -45 0 -81 -93 -140 -109 -70 -134
-73 -258 -27 -34 13 -77 14 -290 7 -282 -9 -314 -4 -314 47 0 38 9 50 53 68
29 12 81 15 264 15 199 -1 235 -3 283 -20 75 -26 137 -26 145 0 9 29 0 38 -79
74 -75 34 -146 88 -146 111 0 8 10 21 22 29 44 31 88 20 247 -59z m7051 -23
c22 -18 23 -21 23 -266 0 -234 -2 -249 -20 -268 -11 -11 -38 -22 -60 -25 -32
-4 -44 -1 -66 18 l-27 24 0 225 c-1 124 -1 235 0 248 1 56 99 85 150 44z
m-1770 -76 c41 -13 115 -36 163 -51 112 -33 168 -78 150 -118 -8 -16 -42 -42
-96 -71 -92 -51 -135 -57 -217 -32 -25 7 -110 16 -190 20 -80 4 -181 12 -224
17 -44 6 -125 14 -180 19 -142 11 -185 36 -156 90 23 44 90 50 260 25 127 -19
276 -23 292 -7 9 9 8 21 -2 51 -7 21 -9 44 -5 51 22 36 104 38 205 6z m-3033
-210 l28 -24 -3 -162 c-5 -204 -6 -202 117 -199 104 3 129 -4 137 -38 10 -40
-27 -66 -114 -82 -116 -21 -140 -54 -124 -171 l7 -55 84 -6 c65 -5 87 -11 98
-25 19 -26 16 -38 -14 -69 -52 -51 -112 -79 -173 -80 -70 0 -109 26 -145 99
-23 47 -26 63 -23 150 3 112 -2 120 -81 141 -55 14 -91 39 -91 61 0 21 39 52
75 58 18 4 44 16 59 27 l25 20 -6 148 c-7 170 -3 195 35 215 40 22 77 19 109
-8z m-2762 -187 c45 -13 112 -22 190 -25 142 -7 182 -17 198 -51 10 -23 8 -28
-18 -50 -29 -25 -29 -25 -170 -19 -134 7 -142 6 -168 -14 -46 -37 -31 -93 31
-109 24 -7 60 -7 102 -1 91 13 180 12 210 -3 39 -20 34 -65 -10 -91 -30 -18
-52 -21 -163 -21 -116 0 -130 -2 -143 -19 -17 -24 -17 -33 0 -126 8 -41 18
-107 21 -146 7 -65 5 -74 -14 -93 -16 -16 -33 -21 -70 -21 -43 0 -53 4 -75 31
-23 27 -26 39 -26 110 0 79 -20 247 -42 344 -6 28 -14 93 -18 145 -8 107 3
154 42 170 34 13 46 12 123 -11z m5488 -89 c39 -34 78 -38 142 -15 60 21 96
18 162 -15 72 -36 184 -136 207 -184 9 -19 16 -51 16 -72 0 -30 -7 -44 -40
-75 -75 -72 -206 -119 -327 -119 -53 0 -91 -12 -105 -34 -21 -31 4 -379 31
-449 20 -51 14 -93 -16 -117 -48 -38 -115 -14 -150 53 -23 45 -45 302 -40 462
3 96 0 163 -9 214 -8 40 -13 110 -12 155 1 44 -1 101 -6 126 -7 39 -5 49 14
73 31 39 87 38 133 -3z m-724 -44 c42 -23 209 -196 281 -291 65 -85 100 -159
100 -208 0 -43 -38 -87 -98 -115 -53 -25 -69 -27 -228 -30 -160 -4 -178 -3
-260 21 -49 14 -101 28 -117 31 -15 4 -37 16 -48 27 -27 27 -21 62 25 131 19
29 54 97 76 152 23 54 47 108 54 120 7 11 22 45 32 75 24 69 62 101 117 101
23 -1 53 -7 66 -14z m-2640 -30 c24 -22 156 -233 182 -290 10 -24 28 -89 40
-145 l22 -102 -20 -27 c-24 -32 -48 -40 -133 -41 -36 -1 -120 -8 -185 -16
-158 -20 -337 -20 -374 0 -59 30 -55 62 21 176 33 52 67 108 74 124 7 17 36
69 66 117 29 47 65 109 80 137 36 66 83 93 155 88 32 -2 60 -11 72 -21z m1763
-185 c123 -8 143 -20 173 -96 40 -106 -3 -139 -181 -140 -127 0 -146 9 -164
75 -5 20 -23 49 -40 65 -41 39 -40 72 3 90 36 16 59 17 209 6z m4882 -3 c46
-20 46 -76 0 -96 -13 -7 -57 -14 -97 -18 -40 -3 -108 -14 -152 -25 -60 -14
-89 -17 -114 -9 -68 19 -79 53 -31 93 57 48 328 86 394 55z m-841 -79 c25 -7
42 -19 49 -35 10 -22 8 -28 -13 -49 -19 -20 -44 -28 -124 -40 -180 -27 -274
-16 -290 35 -16 49 39 79 145 81 30 0 73 4 95 8 58 12 95 12 138 0z m-29171
-35 c41 -21 58 -53 58 -109 1 -27 9 -75 20 -105 25 -70 25 -85 0 -110 -36 -36
-134 -18 -159 29 -6 10 -15 47 -20 82 -15 94 -29 103 -156 95 -55 -3 -221 -8
-370 -12 -148 -3 -306 -10 -350 -16 -44 -6 -127 -12 -185 -14 -58 -1 -115 -3
-127 -3 -31 -1 -63 -35 -63 -66 0 -15 7 -39 15 -55 8 -16 20 -73 26 -127 6
-54 17 -125 24 -158 7 -33 16 -91 20 -130 4 -38 17 -126 30 -195 26 -140 67
-592 67 -744 0 -60 6 -116 14 -139 31 -88 9 -137 -62 -137 -50 0 -88 21 -159
89 -41 39 -55 71 -55 130 -1 38 -157 405 -206 482 -29 46 -54 112 -54 141 0
29 45 68 78 68 48 0 79 -33 102 -108 20 -65 108 -202 130 -202 31 0 24 175
-14 330 -15 58 -31 143 -37 190 -37 295 -64 460 -80 508 -37 107 -17 191 53
229 27 14 70 19 228 24 107 4 238 12 290 17 52 6 230 13 395 17 165 4 329 10
365 15 76 9 144 3 182 -16z m22401 -25 c24 -29 21 -55 -8 -84 -42 -43 -144
-29 -157 23 -19 73 114 123 165 61z m-23128 -329 c61 -36 83 -37 143 -5 78 41
144 32 204 -28 34 -34 148 -287 148 -328 0 -28 -44 -69 -75 -69 -62 0 -90 32
-114 125 -6 22 -24 62 -41 88 -24 38 -35 48 -53 45 -19 -3 -22 -10 -25 -58 -3
-75 -9 -97 -32 -120 -45 -45 -103 -13 -151 84 -37 73 -56 96 -79 96 -43 0 -55
-68 -30 -166 16 -62 9 -96 -24 -114 -44 -23 -118 -13 -135 19 -5 9 -15 73 -21
141 -7 69 -18 142 -26 163 -19 51 -18 91 4 111 22 19 134 43 207 45 39 0 61
-6 100 -29z m-15448 -191 c23 -20 15 -59 -20 -92 -79 -76 -204 -185 -224 -195
-38 -21 -91 -15 -119 13 -23 23 -24 26 -10 54 9 16 46 53 83 82 37 29 87 70
111 92 71 64 137 81 179 46z m11697 -83 c41 -17 53 -48 32 -81 -17 -25 -22
-27 -164 -43 -45 -5 -89 -15 -97 -22 -18 -15 -20 -76 -4 -117 12 -31 49 -369
49 -451 0 -29 -4 -61 -10 -71 -24 -46 -127 -51 -154 -8 -9 14 -16 66 -19 152
-7 162 -25 352 -40 412 -22 84 -64 97 -247 79 -110 -12 -151 9 -136 70 13 48
55 57 341 66 143 4 280 12 305 17 68 13 107 12 144 -3z m1727 -127 c79 -27
144 -101 134 -153 -9 -50 -94 -173 -157 -228 -106 -92 -99 -118 33 -118 76 0
92 -3 109 -20 40 -40 13 -84 -63 -99 -77 -16 -327 -17 -358 -1 -42 22 -59 42
-59 71 0 32 22 59 120 144 64 56 89 87 90 113 0 7 -20 34 -44 60 -55 60 -66
81 -66 129 0 44 25 77 74 99 38 16 141 18 187 3z m25669 -69 c25 -13 42 -68
32 -105 -4 -17 -7 -454 -6 -972 l2 -943 29 -46 c46 -75 61 -107 68 -144 24
-128 118 -189 194 -125 40 35 54 80 42 136 -22 95 -10 174 38 244 42 62 86 88
144 82 53 -5 83 -26 103 -74 25 -58 18 -113 -23 -179 -54 -87 -73 -126 -73
-147 0 -34 30 -77 83 -115 75 -56 111 -72 159 -72 48 0 77 16 144 80 55 52 57
85 13 168 -27 50 -30 65 -27 119 3 53 10 71 43 120 55 80 101 105 184 100 56
-3 67 -7 91 -34 55 -61 49 -213 -11 -309 -47 -73 -52 -91 -33 -129 16 -35 81
-75 120 -75 45 0 148 89 156 135 3 15 -1 50 -8 79 -39 145 -2 285 88 332 61
31 160 7 189 -47 21 -39 6 -145 -35 -247 -44 -109 -42 -129 12 -181 77 -72
166 -88 218 -40 32 30 30 66 -5 115 -60 83 -67 165 -23 259 65 137 174 169
290 85 23 -17 56 -52 72 -78 27 -41 30 -54 27 -107 -3 -61 -1 -58 -99 -204
-49 -72 10 -117 99 -75 44 22 130 127 144 178 7 27 7 64 -1 127 -7 49 -9 107
-5 129 12 73 107 128 174 100 59 -24 69 -96 32 -239 -11 -43 -17 -89 -14 -106
8 -39 108 -140 147 -147 65 -13 115 19 157 101 21 41 22 48 10 118 -15 88 -3
162 37 236 29 54 64 77 117 77 50 0 88 -22 110 -64 28 -52 12 -141 -61 -327
-17 -44 -17 -46 2 -84 40 -83 146 -84 205 -2 31 42 31 43 24 134 -5 81 -4 98
16 143 25 58 57 80 116 80 104 0 145 -120 83 -245 -16 -33 -30 -74 -30 -92 0
-84 101 -83 165 1 14 19 51 51 81 72 32 22 57 48 61 62 3 13 0 56 -6 95 -28
180 -32 236 -19 264 27 58 -68 55 1618 48 882 -4 1570 -10 1590 -16 44 -11 87
-54 100 -100 6 -18 10 -79 10 -135 0 -95 1 -102 26 -125 l26 -24 631 -6 c348
-4 670 -11 717 -17 47 -5 91 -7 98 -5 43 17 -52 81 -243 164 -108 46 -169 79
-187 99 -33 36 -34 44 -8 70 42 42 79 30 386 -120 157 -77 289 -140 293 -140
24 0 61 -44 61 -71 0 -34 -14 -48 -90 -93 -76 -45 -269 -168 -360 -229 -89
-59 -128 -77 -171 -77 -62 0 -91 57 -48 96 11 10 64 41 116 69 107 56 145 93
123 120 -12 14 -35 16 -169 13 -86 -2 -376 -1 -645 0 -593 4 -543 18 -538
-139 2 -57 7 -140 11 -184 10 -95 -1 -139 -42 -169 -27 -20 -43 -21 -300 -24
-172 -2 -276 -7 -284 -14 -21 -17 -15 -35 22 -77 53 -59 48 -80 -35 -146 -118
-95 -117 -120 7 -115 43 2 814 4 1714 4 1596 1 1637 1 1658 -18 29 -27 27 -62
-6 -83 -24 -16 -48 -18 -185 -15 -189 3 -183 6 -323 -122 -198 -181 -267 -239
-303 -257 -62 -32 -152 -21 -152 19 0 31 44 72 252 233 67 53 87 76 88 102 0
42 -135 48 -221 10 -38 -18 -177 -132 -354 -291 -60 -54 -117 -81 -167 -82
-52 0 -68 9 -68 38 0 30 31 60 195 190 60 49 116 99 122 113 11 21 10 26 -10
43 -18 15 -33 17 -78 13 -75 -7 -96 -19 -220 -130 -256 -230 -297 -258 -374
-259 -51 -1 -65 6 -65 36 0 31 16 50 87 104 180 137 223 174 229 198 12 46 -1
48 -233 45 -169 -2 -223 -6 -246 -17 -16 -9 -77 -59 -135 -113 -182 -165 -281
-248 -316 -265 -43 -20 -129 -21 -146 -1 -26 32 -5 54 245 253 108 85 130 122
83 138 -33 11 -288 5 -320 -7 -15 -6 -38 -28 -52 -50 -14 -21 -41 -52 -58 -68
-300 -268 -323 -284 -410 -279 -47 3 -53 6 -56 26 -5 31 14 50 162 170 66 53
135 111 153 129 36 34 43 67 16 78 -29 11 -364 5 -406 -7 -26 -8 -90 -56 -194
-147 -244 -213 -256 -223 -298 -242 -46 -21 -115 -25 -133 -7 -37 37 -14 61
254 271 79 62 97 85 92 119 -4 29 -41 38 -113 26 -75 -11 -105 -28 -184 -102
-36 -33 -93 -83 -126 -111 -33 -27 -99 -84 -147 -127 -73 -65 -94 -78 -133
-84 -98 -14 -127 38 -57 105 57 54 150 131 219 181 34 25 69 58 78 73 16 26
16 30 1 45 -12 13 -36 15 -123 14 -59 -1 -123 -7 -141 -13 -33 -11 -90 -57
-303 -244 -158 -140 -188 -162 -235 -174 -118 -31 -154 39 -57 109 26 19 81
64 122 100 42 36 99 83 128 104 83 62 95 109 31 118 -18 2 -71 2 -118 -1 -47
-4 -134 -3 -195 0 -149 8 -166 2 -210 -71 -19 -32 -40 -60 -45 -62 -5 -2 -55
-44 -112 -94 -137 -122 -236 -200 -275 -219 -18 -9 -53 -16 -79 -17 -89 -1
-96 47 -14 113 23 19 86 72 140 119 54 47 116 100 139 118 59 47 77 78 60 98
-11 13 -35 15 -154 12 -173 -4 -146 11 -425 -238 -214 -190 -252 -217 -323
-226 -113 -16 -114 53 -3 133 28 21 85 67 126 103 41 36 93 78 115 95 100 73
119 117 58 134 -20 6 -41 7 -46 4 -6 -3 -145 -5 -309 -4 -354 2 -339 6 -480
-121 -180 -162 -311 -270 -344 -284 -44 -19 -109 -18 -128 1 -27 27 -1 58 171
200 90 75 168 147 173 158 14 39 -11 52 -94 50 -97 -3 -142 -21 -151 -62 -4
-17 -18 -45 -32 -61 -41 -49 -309 -279 -338 -290 -61 -23 -135 -6 -135 31 0
24 22 46 155 154 186 152 226 196 195 215 -17 10 -556 11 -584 1 -12 -5 -38
-26 -57 -46 -65 -70 -340 -310 -381 -332 -49 -28 -128 -31 -152 -7 -18 18 -18
17 -10 39 6 15 140 129 267 226 33 25 66 58 74 73 27 52 16 54 -242 54 -221 0
-237 -1 -275 -21 -21 -12 -110 -85 -197 -162 -178 -158 -223 -195 -271 -219
-34 -18 -120 -25 -140 -12 -23 14 -13 57 19 84 18 15 62 54 98 86 36 32 96 83
134 113 37 30 75 65 84 79 15 23 15 26 0 42 -10 10 -31 15 -54 15 -21 -1 -120
-2 -221 -3 -100 0 -194 -5 -207 -10 -13 -5 -75 -56 -137 -112 -272 -249 -299
-268 -374 -268 -58 0 -80 16 -70 54 6 26 25 43 178 163 126 100 141 115 136
145 -3 23 -3 23 -158 23 -142 0 -159 2 -197 23 -26 13 -60 22 -87 22 -43 0
-48 -4 -200 -144 -122 -113 -164 -146 -197 -154 -71 -18 -121 14 -104 68 4 11
34 44 68 72 109 90 280 242 315 280 19 20 52 49 73 64 62 42 103 156 79 218
-10 26 -14 28 -51 23 -34 -4 -54 -18 -119 -81 -73 -71 -80 -76 -122 -76 -70 0
-98 34 -71 86 8 16 52 58 99 94 47 36 122 101 168 145 71 69 85 88 100 138 19
61 15 104 -9 114 -39 14 -88 -9 -149 -70 -34 -34 -104 -99 -155 -144 -102 -90
-144 -108 -190 -82 -53 30 -40 80 36 139 32 25 99 81 148 125 135 120 205 179
252 209 23 15 45 35 48 44 12 27 13 296 2 310 -12 15 -45 15 -74 -1 -20 -11
-100 -83 -299 -268 -88 -82 -125 -98 -182 -78 -36 12 -50 45 -33 77 6 11 30
35 53 53 24 18 104 88 178 154 166 149 207 179 273 201 86 28 87 29 87 169 0
67 4 146 10 174 13 69 2 91 -47 91 -31 0 -46 -10 -122 -83 -166 -161 -280
-256 -316 -263 -47 -8 -89 13 -93 49 -4 33 8 45 228 237 280 244 340 301 341
323 1 12 0 54 -1 92 -1 39 4 92 10 119 13 58 6 84 -24 92 -39 9 -78 -15 -176
-109 -206 -199 -378 -346 -419 -357 -46 -12 -84 -1 -100 29 -16 30 4 65 63
110 46 34 212 180 326 285 25 23 105 93 178 155 72 62 137 121 142 131 6 10
10 48 10 84 0 56 -3 67 -21 76 -42 23 -63 8 -318 -229 -68 -63 -142 -80 -181
-41 -39 39 -31 51 154 210 54 47 128 107 165 134 36 27 98 82 136 121 39 39
79 77 90 83 25 14 80 15 105 2z m-24763 -63 c27 -27 8 -64 -47 -92 -46 -23
-70 -49 -70 -75 0 -6 20 -32 43 -58 57 -61 97 -122 97 -146 0 -34 -29 -56 -75
-56 -53 0 -84 23 -124 95 -31 56 -67 83 -94 72 -10 -4 -16 -26 -19 -72 -3 -51
-9 -71 -23 -81 -30 -22 -90 -17 -120 9 -24 20 -28 34 -36 110 -5 52 -17 103
-29 127 -26 52 -25 86 4 115 34 34 91 46 188 39 68 -5 94 -2 143 15 67 23 139
22 162 -2z m1458 -11 c49 -21 61 -48 33 -81 -33 -37 -75 -44 -335 -51 -209 -7
-234 -5 -258 10 -19 13 -25 24 -23 44 5 48 49 60 267 71 107 6 196 13 199 16
11 10 83 5 117 -9z m-3264 -62 c18 -16 20 -26 15 -66 -4 -29 -2 -56 5 -69 16
-31 -3 -67 -46 -85 -42 -17 -286 -22 -327 -6 -37 15 -50 45 -49 111 0 76 24
97 118 106 37 3 93 12 123 20 69 18 135 13 161 -11z m2890 -275 c18 -9 49 -68
49 -92 0 -8 9 -26 21 -41 27 -34 74 -35 124 0 76 51 131 54 161 9 22 -33 5
-59 -56 -90 -27 -14 -54 -34 -60 -45 -16 -30 25 -66 84 -75 60 -9 110 -43 114
-77 7 -58 -52 -73 -153 -38 -77 27 -100 25 -122 -6 -37 -55 -62 -74 -93 -74
-37 0 -90 47 -90 80 0 66 -45 230 -80 295 -55 100 -57 139 -7 160 31 14 75 12
108 -6z m31862 -88 c19 -15 22 -43 7 -71 -17 -32 -77 -44 -223 -45 l-139 0
-29 -33 c-33 -37 -35 -49 -14 -98 22 -53 65 -66 216 -69 131 -3 161 -11 179
-46 15 -27 -10 -66 -48 -76 -38 -10 -133 -10 -224 1 -74 8 -77 7 -102 -17
l-26 -26 7 -134 6 -135 -27 -27 c-24 -24 -33 -27 -74 -22 -74 8 -80 22 -80
190 0 78 4 163 9 189 5 31 3 90 -6 175 -8 70 -15 140 -15 155 0 37 43 84 86
95 20 4 136 8 258 8 174 0 227 -3 239 -14z m-38143 -826 c72 -27 356 -112 523
-155 129 -34 128 -122 -2 -145 -65 -11 -388 -94 -467 -120 -88 -29 -150 -32
-182 -9 -44 30 -18 74 61 105 23 9 44 24 45 34 4 16 -42 17 -831 14 -810 -4
-836 -3 -856 15 -27 24 -27 58 0 82 20 18 50 19 698 24 372 3 720 2 774 -1
114 -8 151 -1 155 28 2 15 -5 23 -30 32 -63 23 -117 53 -123 68 -8 22 20 61
47 66 41 7 101 -5 188 -38z m33628 -2001 c38 -26 29 -67 -24 -111 -26 -21 -90
-75 -143 -121 -127 -109 -169 -134 -229 -135 -59 -1 -72 7 -72 40 0 28 12 40
150 156 226 189 264 209 318 171z"/>
<path d="M26145 14429 c-116 -11 -338 -64 -457 -109 -104 -39 -244 -111 -308
-158 -183 -134 -289 -251 -366 -404 -60 -121 -75 -185 -75 -337 1 -145 13
-198 77 -323 76 -150 159 -250 304 -363 79 -62 121 -108 185 -207 98 -153 235
-246 320 -218 53 18 69 48 57 107 -6 27 -16 102 -22 168 -26 266 -173 678
-280 780 -34 32 -42 88 -14 99 45 17 86 3 147 -50 20 -19 46 -34 57 -34 33 0
60 35 60 79 0 30 6 44 22 55 33 23 75 20 103 -9 29 -28 31 -49 10 -98 -33 -80
-12 -121 69 -134 29 -5 42 -1 61 17 25 23 59 109 70 174 8 51 44 86 88 86 69
0 86 -57 37 -130 -35 -52 -37 -71 -12 -93 50 -46 122 -1 122 75 0 52 43 98 92
98 63 0 76 -28 43 -96 -30 -60 -30 -59 -5 -84 36 -36 73 -26 146 40 61 55 70
60 113 60 56 0 108 -29 117 -65 7 -30 -16 -102 -52 -157 -42 -65 -132 -321
-174 -490 -42 -170 -75 -386 -65 -418 3 -11 20 -31 36 -45 48 -40 140 -31 250
26 57 29 154 130 186 194 59 116 132 198 253 283 103 71 212 198 279 323 75
143 86 187 85 364 0 130 -3 159 -23 215 -48 136 -122 250 -235 363 -182 182
-425 308 -729 378 -195 45 -377 57 -572 38z"/>
<path d="M25813 13261 c-31 -14 -38 -46 -16 -80 69 -110 80 -135 120 -286 58
-214 73 -306 73 -440 0 -128 11 -170 50 -190 24 -12 168 -34 351 -52 52 -5 58
-3 90 25 l34 30 2 124 c1 146 23 289 57 380 14 36 34 102 45 146 11 46 42 124
71 178 27 53 50 104 50 113 0 45 -65 54 -132 20 -41 -21 -54 -21 -129 -1 -28
7 -49 5 -97 -11 -59 -20 -64 -20 -115 -4 -74 24 -97 21 -148 -13 -30 -20 -56
-30 -83 -30 -34 0 -45 6 -82 46 -46 49 -95 64 -141 45z"/>
<path d="M25832 12193 c-50 -24 -57 -46 -34 -101 11 -26 23 -69 27 -96 7 -49
43 -152 93 -261 72 -157 241 -284 413 -309 186 -27 440 182 470 386 42 293 42
276 0 305 -34 23 -37 23 -238 18 -275 -8 -405 5 -608 59 -73 20 -82 20 -123
-1z"/>
<path d="M47072 12803 c-167 -89 -247 -161 -268 -242 -17 -68 -5 -108 56 -174
68 -75 140 -121 240 -157 72 -25 100 -30 182 -30 84 0 107 4 180 32 108 41
174 83 226 145 56 68 72 100 72 149 0 34 -9 52 -50 106 -34 44 -66 73 -98 89
-26 13 -67 38 -92 55 -64 45 -107 54 -261 54 -129 0 -138 -1 -187 -27z m419
-259 c25 -22 24 -51 -1 -64 -12 -6 -83 -8 -197 -5 -98 2 -190 5 -205 5 -29 0
-58 23 -58 45 0 7 7 21 16 30 14 14 41 15 222 11 173 -4 207 -8 223 -22z"/>
<path d="M35168 13959 c-10 -5 -38 -40 -63 -77 -24 -37 -63 -89 -85 -117 -22
-27 -62 -77 -88 -110 -26 -33 -71 -86 -99 -117 -59 -65 -65 -90 -27 -114 22
-15 58 -17 267 -17 306 -1 447 18 503 66 34 30 27 54 -35 121 -73 80 -187 219
-222 273 -65 98 -102 121 -151 92z"/>
<path d="M35574 13325 c-82 -38 -195 -50 -464 -50 -170 0 -267 4 -317 14 -117
23 -133 14 -250 -130 -54 -67 -107 -133 -118 -147 -11 -15 -62 -81 -115 -147
-52 -67 -133 -170 -180 -230 -47 -59 -137 -174 -200 -254 -195 -245 -271 -342
-375 -476 -55 -71 -128 -159 -162 -196 -73 -79 -81 -111 -33 -127 19 -7 93 -9
203 -5 183 6 229 0 262 -37 26 -28 13 -64 -31 -85 -31 -15 -67 -16 -287 -14
-339 4 -302 23 -527 -266 -56 -71 -123 -157 -150 -190 -61 -76 -205 -258 -276
-350 -59 -77 -154 -198 -374 -475 -80 -100 -163 -206 -185 -235 -22 -29 -93
-119 -157 -201 -231 -293 -295 -374 -461 -585 -92 -118 -187 -239 -211 -269
-25 -30 -106 -134 -182 -230 -76 -96 -179 -227 -229 -290 -51 -63 -117 -149
-147 -190 -30 -42 -63 -82 -73 -90 -54 -45 -92 -128 -65 -145 11 -7 6104 -6
8100 1 1150 4 1407 7 1418 18 19 18 4 45 -62 116 -28 31 -100 119 -161 195
-60 77 -159 203 -220 280 -61 77 -165 208 -230 290 -65 83 -189 238 -274 345
-235 295 -287 362 -416 525 -272 344 -318 402 -354 445 -39 47 -392 494 -426
539 -28 37 -299 377 -343 430 -21 25 -53 66 -72 91 -81 109 -154 193 -184 211
-29 18 -53 19 -384 19 -365 -1 -391 2 -415 41 -17 27 0 65 35 80 26 11 92 13
316 10 295 -3 312 -1 312 39 0 10 -20 42 -45 72 -64 75 -352 430 -400 493 -22
29 -87 112 -145 185 -58 72 -125 157 -150 188 -97 124 -396 500 -429 541 -46
57 -114 144 -157 202 -55 75 -115 87 -210 44z m130 -269 c51 -21 76 -51 76
-89 0 -45 -41 -83 -121 -110 -84 -29 -88 -48 -22 -118 l48 -51 0 -77 c-1 -90
-21 -137 -84 -194 -71 -64 -115 -88 -174 -94 -171 -18 -366 201 -325 364 13
52 73 124 136 160 38 23 61 28 146 32 l101 6 -3 58 c-4 67 5 82 63 108 48 22
113 24 159 5z m-760 -127 c50 -39 37 -64 -72 -140 -29 -20 -51 -47 -67 -81
-34 -73 -21 -101 57 -118 52 -11 140 -67 158 -100 6 -10 10 -37 10 -59 0 -105
-163 -178 -285 -127 -50 21 -99 67 -133 126 -56 93 -24 275 69 396 36 46 103
103 139 117 36 13 98 6 124 -14z m-51 -1148 c62 -27 132 -55 157 -61 47 -12
293 -93 395 -130 54 -20 78 -22 242 -21 233 2 277 -13 259 -85 -12 -48 -51
-55 -319 -53 -196 1 -254 -2 -304 -15 -73 -19 -267 -93 -373 -141 -83 -38
-142 -45 -178 -19 -36 25 -28 60 21 91 23 15 56 39 73 54 23 19 54 30 118 42
90 16 141 39 160 70 17 27 -21 52 -107 72 -39 9 -110 33 -157 54 -47 21 -107
46 -135 56 -53 20 -95 55 -95 80 0 8 9 24 20 35 35 35 96 27 223 -29z m-54
-225 c51 -13 67 -32 57 -69 -10 -41 -54 -47 -339 -47 l-259 0 -29 29 c-16 16
-29 34 -29 39 0 21 37 54 70 61 49 11 475 0 529 -13z m1358 -1191 c36 -25 44
-75 27 -168 -16 -94 -19 -263 -4 -301 5 -14 32 -42 60 -62 39 -28 50 -42 50
-63 0 -32 -23 -57 -60 -65 -32 -8 -218 17 -247 33 -28 15 -29 27 -2 70 31 51
22 82 -29 108 -88 44 -89 53 -27 147 52 79 88 170 82 205 -7 37 11 87 36 99
33 16 89 14 114 -3z m-2374 -536 c155 -52 340 -187 386 -282 28 -57 36 -140
21 -212 -11 -56 -18 -65 -99 -146 -105 -104 -157 -128 -296 -136 -55 -3 -108
-12 -137 -24 -67 -27 -123 -25 -154 6 -24 24 -25 30 -19 87 8 67 -7 237 -46
523 -10 72 2 123 35 154 55 52 201 66 309 30z m2750 -160 c46 -25 51 -70 10
-96 -23 -15 -47 -17 -157 -15 -90 1 -173 -4 -266 -18 -80 -12 -187 -20 -263
-20 -123 0 -129 1 -152 25 -29 28 -31 42 -10 72 22 31 68 37 184 24 100 -11
115 -10 256 23 76 18 367 21 398 5z m-1459 -81 c36 -16 40 -40 16 -81 l-21
-35 51 -28 c46 -25 51 -31 48 -58 -5 -47 -48 -66 -177 -78 -123 -12 -190 -5
-222 20 -19 16 -20 22 -10 56 5 22 8 43 4 49 -3 5 -30 20 -59 33 -65 28 -80
62 -45 97 19 19 36 23 144 28 211 10 245 9 271 -3z m1269 -141 c45 -19 61 -41
48 -66 -17 -30 -67 -41 -231 -49 -143 -8 -154 -9 -171 -31 -26 -31 -24 -63 4
-89 37 -35 80 -43 166 -31 42 5 97 12 122 16 86 10 141 -24 124 -78 -11 -33
-68 -50 -201 -58 -178 -12 -207 -38 -165 -147 25 -67 27 -121 4 -146 -25 -27
-104 -25 -138 5 -31 27 -40 66 -50 222 -5 84 -15 135 -41 217 -23 72 -32 117
-28 137 13 65 75 90 234 92 63 0 140 4 170 9 87 12 118 11 153 -3z"/>
<path d="M35330 12727 c-27 -13 -49 -63 -49 -112 -1 -47 33 -112 68 -129 78
-41 140 1 155 104 15 102 -86 181 -174 137z"/>
<path d="M33673 9705 c-30 -21 -29 -39 8 -154 28 -86 31 -108 30 -213 -1 -152
7 -163 106 -162 75 1 96 9 164 65 59 49 81 94 80 168 0 111 -42 166 -196 262
-81 49 -154 62 -192 34z"/>
<path d="M10250 13814 c-416 -53 -677 -126 -1013 -283 -117 -55 -131 -88 -69
-171 72 -95 -22 -238 -215 -328 -50 -23 -71 -27 -148 -26 -49 0 -118 4 -152 8
-89 12 -105 5 -160 -71 -212 -298 -284 -500 -284 -803 0 -179 23 -307 81 -451
121 -300 341 -559 656 -772 308 -207 653 -345 1063 -422 607 -114 1304 -43
1836 188 310 134 525 276 731 483 184 184 305 370 377 579 50 145 62 227 61
405 -2 179 -17 261 -72 407 -200 530 -724 947 -1453 1158 -147 43 -287 70
-491 95 -193 24 -579 26 -748 4z m460 -1339 c90 -23 207 -85 283 -150 50 -42
74 -72 99 -122 106 -215 -19 -434 -317 -554 -71 -29 -93 -33 -204 -37 -138 -5
-194 4 -301 48 -138 57 -249 153 -297 255 -37 80 -39 182 -4 269 55 139 265
276 476 310 54 8 200 -2 265 -19z"/>
<path d="M10405 12386 c-196 -62 -347 -220 -332 -346 14 -115 113 -228 253
-290 77 -34 82 -35 209 -35 127 0 132 1 209 35 200 88 299 268 226 410 -48 94
-203 202 -328 229 -69 14 -186 13 -237 -3z m154 -132 c12 -15 21 -38 21 -51 0
-13 11 -35 25 -48 19 -20 34 -25 72 -25 54 0 93 -21 93 -50 0 -24 -20 -35 -93
-50 -63 -13 -77 -28 -77 -84 0 -44 -22 -66 -65 -66 -38 0 -58 22 -70 77 -9 45
-25 54 -105 63 -75 8 -100 21 -100 51 0 23 20 34 92 49 70 14 91 32 83 71 -6
28 8 67 29 81 26 18 75 8 95 -18z"/>
<path d="M8660 13468 c-55 -23 -164 -122 -176 -161 -3 -11 5 -30 23 -51 15
-18 40 -49 55 -69 39 -50 128 -91 198 -92 83 0 123 12 188 55 70 47 112 105
112 155 0 28 -8 43 -41 75 -99 96 -250 133 -359 88z m194 -130 c36 -16 43 -46
17 -72 -19 -18 -33 -21 -116 -21 -83 0 -97 3 -116 21 -25 25 -20 38 25 65 36
22 149 26 190 7z"/>
<path d="M55599 6712 c-134 -31 -277 -136 -319 -234 -18 -43 -22 -65 -18 -123
8 -119 71 -201 208 -270 91 -46 160 -63 284 -71 78 -5 116 -3 166 10 151 38
294 137 344 238 83 167 -39 356 -281 435 -104 34 -273 41 -384 15z"/>
<path d="M43673 10855 c-31 -22 -44 -71 -33 -120 17 -75 78 -84 139 -19 28 30
32 41 27 67 -13 64 -88 105 -133 72z"/>
<path d="M25881 10327 c-42 -21 -64 -72 -69 -158 -6 -100 1 -123 38 -139 62
-26 110 41 129 182 12 88 8 106 -26 119 -32 12 -43 11 -72 -4z"/>
<path d="M41363 9935 c-46 -32 -34 -141 18 -159 56 -19 159 30 159 77 0 27
-48 73 -88 85 -51 16 -63 15 -89 -3z"/>
<path d="M8094 8643 c-14 -14 -15 -28 -9 -82 8 -76 8 -322 0 -1471 -3 -454 -6
-1155 -7 -1559 l-1 -735 24 -19 c19 -15 34 -18 79 -13 87 8 2001 44 2785 52
281 3 526 5 545 6 19 0 274 4 565 9 292 5 690 10 885 10 195 1 363 5 373 10
41 22 12 64 -84 122 -53 32 -219 151 -789 565 -458 333 -509 371 -920 667
-537 388 -698 505 -828 604 -151 115 -162 121 -200 121 -46 0 -60 -32 -44
-101 13 -57 15 -409 2 -504 -13 -105 28 -143 80 -73 51 68 67 78 114 78 37 0
48 -5 66 -27 26 -34 22 -56 -30 -143 -42 -71 -91 -180 -112 -250 -16 -54 -45
-73 -106 -67 -72 8 -152 55 -189 112 -58 90 -116 155 -177 198 -84 58 -136
111 -136 136 0 11 9 30 20 41 30 30 78 26 135 -12 100 -68 105 -70 130 -64 39
10 47 37 34 110 -9 53 -7 480 3 678 3 52 -26 80 -242 236 -96 69 -283 205
-415 301 -132 96 -289 211 -350 255 -60 44 -146 105 -190 136 -209 147 -796
577 -842 616 -50 43 -107 74 -137 74 -8 0 -22 -8 -32 -17z"/>
<path d="M10095 8368 c-11 -6 -42 -30 -70 -53 -57 -47 -420 -309 -478 -344
-93 -57 -92 -84 6 -149 100 -67 357 -253 510 -370 146 -111 175 -127 210 -118
34 8 40 33 27 103 -8 40 -8 94 -2 171 8 97 12 116 32 137 51 54 117 40 236
-53 33 -26 132 -98 220 -161 87 -63 179 -132 204 -152 83 -70 131 -72 203 -9
23 20 61 49 84 63 82 52 89 98 20 133 -18 9 -86 56 -152 104 -66 48 -149 106
-185 130 -65 44 -144 101 -512 370 -276 202 -288 210 -312 210 -11 0 -30 -6
-41 -12z"/>
<path d="M10470 7509 c-9 -15 -8 -38 1 -88 9 -52 9 -83 0 -134 -15 -88 -3
-116 87 -192 101 -86 142 -89 229 -17 27 22 69 52 96 67 52 30 71 56 62 84 -3
10 -40 41 -83 69 -42 28 -130 91 -195 141 -96 73 -125 91 -153 91 -23 0 -37
-6 -44 -21z"/>
<path d="M14885 9428 c-30 -16 -45 -39 -45 -69 0 -67 24 -75 88 -29 49 37 60
64 36 91 -19 21 -49 24 -79 7z"/>
<path d="M49825 9059 c-60 -5 -166 -17 -235 -28 -69 -11 -150 -23 -180 -26
-30 -4 -129 -24 -220 -45 -91 -21 -186 -42 -211 -45 -26 -4 -62 -16 -80 -27
-33 -20 -34 -21 -11 -29 13 -5 81 -3 165 6 308 32 759 65 892 65 147 0 202 9
248 42 37 26 38 74 1 88 -29 12 -211 11 -369 -1z"/>
<path d="M47165 8914 c-11 -3 -78 -16 -150 -30 -358 -71 -652 -249 -807 -488
-46 -72 -98 -233 -98 -305 0 -132 42 -285 87 -321 29 -22 94 -27 140 -9 15 6
80 16 143 24 401 46 902 124 1165 181 167 37 416 110 720 213 187 63 222 84
209 124 -17 52 -106 171 -193 257 -86 85 -111 103 -233 167 -165 86 -239 114
-417 155 -125 29 -152 32 -341 34 -113 1 -214 1 -225 -2z"/>
<path d="M50215 8819 c-16 -7 -95 -47 -175 -90 -126 -68 -298 -148 -565 -261
-73 -31 -274 -108 -410 -158 -94 -34 -195 -87 -195 -102 0 -24 167 1 384 56
217 55 286 81 393 149 74 48 144 62 299 59 126 -3 136 -2 240 32 60 19 138 43
174 54 96 30 256 86 329 116 103 42 139 90 89 118 -14 7 -86 15 -178 19 -85 4
-200 10 -255 13 -64 4 -111 2 -130 -5z"/>
<path d="M49570 8789 c-69 -10 -208 -23 -310 -29 -102 -5 -194 -12 -205 -15
-32 -8 -370 -35 -438 -35 -34 0 -73 -6 -87 -13 -47 -23 -37 -49 48 -134 56
-57 87 -98 110 -145 26 -55 37 -68 66 -78 40 -13 76 -6 133 27 24 14 69 33
100 43 62 20 307 117 563 223 249 103 296 131 270 162 -16 20 -90 18 -250 -6z"/>
<path d="M45735 8269 c-60 -16 -155 -36 -210 -44 -55 -9 -131 -24 -170 -35
-38 -11 -101 -24 -140 -30 -38 -6 -128 -24 -200 -40 -71 -16 -161 -36 -200
-43 -38 -8 -108 -24 -155 -36 -47 -12 -184 -46 -305 -76 -532 -133 -594 -152
-919 -281 -71 -29 -96 -49 -96 -80 0 -34 29 -44 144 -51 133 -8 166 3 201 64
20 33 39 50 73 65 92 41 176 21 297 -71 137 -104 258 -94 544 45 221 108 346
163 586 258 284 112 342 134 539 201 178 62 221 84 245 127 37 65 -52 75 -234
27z"/>
<path d="M45830 8026 c-19 -7 -64 -25 -100 -39 -36 -15 -126 -49 -200 -77
-318 -120 -621 -241 -647 -257 -30 -20 -30 -51 1 -59 13 -3 88 4 167 15 117
17 569 68 842 96 121 13 137 37 88 138 -22 45 -31 78 -31 114 0 30 -5 55 -13
62 -23 18 -70 22 -107 7z"/>
<path d="M48440 7990 c-41 -11 -149 -33 -240 -50 -251 -48 -397 -78 -480 -101
-41 -12 -124 -34 -184 -50 -60 -16 -147 -42 -195 -59 -47 -16 -117 -36 -156
-45 -38 -9 -171 -46 -295 -81 -124 -36 -260 -72 -304 -80 -87 -15 -106 -26
-106 -59 0 -32 22 -48 157 -109 234 -105 401 -144 668 -152 297 -10 551 38
770 146 147 72 219 122 326 229 90 89 101 105 158 222 66 135 71 164 28 194
-27 19 -54 18 -147 -5z"/>
<path d="M46343 7648 c-33 -16 -31 -56 4 -69 15 -5 38 -7 52 -4 32 8 103 64
95 76 -7 12 -124 10 -151 -3z"/>
<path d="M45915 7595 c-123 -25 -275 -44 -630 -80 -132 -14 -249 -27 -260 -30
-11 -3 -119 -10 -240 -15 -127 -6 -245 -17 -280 -26 -62 -15 -189 -82 -231
-121 -31 -29 -31 -66 0 -83 55 -29 593 24 913 90 54 12 143 27 198 36 55 8
123 21 150 29 28 8 100 23 162 34 62 11 138 27 171 35 32 9 94 22 137 31 85
16 115 35 115 72 0 18 -9 28 -35 39 -41 17 -33 17 -170 -11z"/>
<path d="M18771 8848 c-16 -5 -34 -14 -40 -22 -9 -11 -12 -306 -12 -1188 1
-645 1 -1176 1 -1180 0 -4 11 -15 25 -24 22 -14 88 -16 619 -15 396 0 602 3
615 10 11 6 22 19 25 28 3 10 7 491 11 1068 3 578 8 1102 11 1165 5 113 5 116
-19 138 l-24 23 -592 2 c-325 1 -604 -1 -620 -5z m574 -553 l25 -24 2 -638 c1
-351 1 -654 -1 -673 -5 -78 -102 -114 -157 -59 l-25 26 0 672 -1 673 23 24
c32 34 100 34 134 -1z"/>
<path d="M20285 8849 c-21 -4 -44 -14 -51 -24 -10 -13 -13 -191 -14 -818 -1
-441 -3 -820 -5 -842 -1 -22 -4 -190 -5 -374 -2 -316 -1 -334 17 -353 19 -18
68 -19 2063 -18 1967 0 2045 0 2062 18 18 18 19 69 19 1197 0 1128 -1 1179
-18 1197 -18 17 -98 18 -2024 20 -1104 2 -2023 0 -2044 -3z"/>
<path d="M24644 8852 c-18 -2 -39 -11 -49 -22 -15 -17 -16 -108 -16 -1196 0
-1135 1 -1178 19 -1196 17 -18 46 -19 603 -19 321 0 592 0 602 0 9 1 26 10 36
20 19 19 20 45 21 1123 0 607 3 1133 7 1170 5 62 4 68 -20 92 -14 14 -36 26
-49 26 -133 3 -1131 4 -1154 2z m684 -617 c22 -26 22 -30 16 -198 -3 -95 -10
-215 -15 -267 -8 -85 -7 -98 10 -120 17 -23 26 -25 117 -30 118 -6 154 -23
154 -70 0 -47 -36 -63 -152 -70 -150 -9 -142 9 -148 -316 l-5 -266 -28 -24
c-54 -46 -138 -25 -155 39 -5 18 -5 138 1 277 l9 244 -23 19 c-20 16 -38 18
-154 15 -147 -3 -191 7 -202 50 -8 32 5 53 48 75 28 14 57 17 157 15 109 -1
126 1 150 19 l27 20 8 274 c6 169 13 284 20 299 27 56 122 65 165 15z"/>
<path d="M31167 6950 c-51 -13 -110 -44 -184 -96 -113 -80 -298 -338 -364
-508 -11 -28 -34 -72 -51 -99 -54 -84 -30 -110 148 -156 227 -59 333 -91 421
-127 78 -33 95 -36 154 -32 51 4 80 13 130 41 35 19 152 70 259 111 107 42
211 84 230 94 45 22 51 59 18 110 -13 21 -30 53 -38 72 -7 19 -22 47 -32 61
-10 15 -27 48 -38 74 -27 63 -119 193 -193 271 -61 66 -162 139 -232 169 -47
20 -175 28 -228 15z"/>
<path d="M33135 6344 c-261 -27 -672 -115 -882 -190 -50 -18 -93 -50 -93 -70
0 -7 16 -53 35 -101 39 -98 75 -259 75 -334 0 -73 32 -104 172 -164 175 -75
532 -250 570 -278 87 -66 118 -52 304 135 157 159 290 317 339 403 16 28 41
69 57 91 33 51 71 181 71 249 0 111 -87 203 -228 242 -49 14 -337 25 -420 17z"/>
<path d="M28565 6244 c-258 -42 -430 -122 -471 -221 -52 -124 32 -312 233
-523 62 -64 131 -130 154 -146 39 -27 47 -28 148 -29 87 -1 115 -5 155 -23 54
-24 121 -80 150 -125 17 -26 18 -34 6 -79 -11 -46 -11 -52 7 -77 11 -14 71
-56 133 -93 62 -37 137 -83 168 -104 100 -66 139 -64 225 15 62 57 288 220
509 368 103 68 196 136 208 150 16 21 20 40 20 102 0 83 70 454 95 502 8 15
15 37 15 48 0 30 -54 68 -112 81 -119 25 -406 79 -453 85 -27 4 -102 15 -165
25 -261 43 -366 52 -650 55 -217 3 -307 0 -375 -11z"/>
<path d="M31840 6014 c-40 -19 -118 -50 -172 -69 -126 -44 -138 -51 -138 -79
0 -32 14 -42 100 -66 82 -22 251 -83 345 -124 33 -14 69 -26 81 -26 44 0 57
47 30 112 -12 29 -38 122 -60 221 -9 40 -41 67 -79 67 -18 0 -66 -16 -107 -36z"/>
<path d="M30508 5994 c-31 -16 -35 -26 -77 -234 -16 -80 -34 -158 -40 -173
-19 -48 -14 -87 11 -96 33 -12 69 2 156 57 63 40 253 139 461 240 88 43 60 82
-79 112 -52 11 -129 31 -170 44 -75 25 -222 66 -231 66 -2 -1 -16 -7 -31 -16z"/>
<path d="M31033 5653 c-231 -118 -556 -295 -626 -341 -68 -45 -68 -48 -67
-386 0 -166 5 -340 10 -387 5 -46 10 -112 10 -146 0 -102 15 -113 340 -236 89
-33 346 -130 435 -164 69 -26 106 -13 392 135 432 224 602 323 625 365 17 32
20 383 6 607 -7 102 -11 216 -10 253 1 37 -2 77 -8 87 -13 24 -77 57 -213 112
-255 101 -306 121 -367 143 -36 12 -90 35 -120 49 -41 19 -71 26 -117 26 -59
0 -71 -5 -290 -117z m393 -298 c49 -14 107 -33 129 -41 122 -47 284 -186 328
-281 31 -68 31 -198 0 -267 -67 -143 -263 -283 -468 -332 -90 -21 -294 -18
-386 5 -157 40 -311 131 -397 234 -68 81 -84 125 -83 225 0 70 5 94 25 136
126 255 538 410 852 321z"/>
<path d="M31150 5254 c-90 -17 -226 -70 -279 -109 -63 -47 -124 -115 -140
-158 -17 -45 -13 -147 8 -192 49 -107 228 -222 381 -246 159 -24 321 9 452 92
58 37 125 109 144 154 17 41 18 143 2 196 -14 48 -123 156 -193 191 -102 52
-290 88 -375 72z"/>
<path d="M32327 5355 c-21 -20 -21 -28 -2 -102 17 -68 24 -452 11 -550 -8 -60
-8 -63 16 -73 43 -20 47 -18 418 255 69 51 144 105 168 120 50 33 55 63 16 94
-15 12 -31 21 -35 21 -5 0 -120 54 -256 121 -260 127 -308 143 -336 114z"/>
<path d="M30075 5109 c-22 -12 -80 -52 -130 -88 -132 -98 -244 -179 -326 -236
-83 -58 -99 -77 -83 -102 13 -21 12 -21 327 -173 268 -129 308 -141 328 -96 9
18 8 33 0 58 -27 76 -39 439 -19 557 10 56 9 72 -1 85 -18 22 -49 20 -96 -5z"/>
<path d="M33064 4936 c-99 -88 -391 -295 -657 -464 -91 -59 -101 -76 -108
-192 -10 -152 -55 -385 -90 -462 -47 -104 -30 -120 166 -161 66 -14 156 -33
200 -42 177 -37 215 -44 335 -54 69 -6 161 -18 205 -26 44 -8 143 -19 220 -25
390 -28 759 6 916 85 64 33 138 100 155 142 41 96 -12 276 -119 408 -66 81
-249 265 -282 282 -16 9 -66 20 -111 24 -131 12 -206 64 -219 153 -11 74 -33
95 -190 191 -81 50 -180 111 -220 138 -98 63 -134 64 -201 3z"/>
<path d="M29237 4456 c-191 -179 -283 -286 -394 -458 -57 -90 -113 -235 -119
-313 -5 -55 -3 -65 28 -115 37 -61 103 -110 183 -136 67 -22 395 -30 549 -15
91 10 505 93 527 107 3 2 56 17 118 34 129 35 184 60 207 95 15 23 14 28 -11
82 -29 63 -85 304 -85 366 0 85 -12 94 -270 210 -237 107 -421 197 -473 233
-35 24 -60 34 -88 34 -37 0 -49 -9 -172 -124z"/>
<path d="M31970 4219 c-118 -72 -352 -196 -426 -225 -34 -14 -72 -36 -84 -49
-22 -24 -23 -26 -6 -44 12 -13 53 -28 114 -42 52 -12 152 -39 221 -61 140 -44
202 -52 226 -27 18 18 46 118 70 249 9 47 23 106 31 132 8 26 14 62 12 80 -3
30 -6 33 -38 36 -27 2 -54 -9 -120 -49z"/>
<path d="M30426 4097 c-22 -16 -21 -28 28 -213 40 -156 47 -170 84 -179 31 -6
54 1 147 45 33 16 103 43 155 60 111 37 140 53 140 79 0 29 -17 38 -156 82
-71 22 -172 60 -224 84 -116 52 -149 60 -174 42z"/>
<path d="M31181 3818 c-24 -4 -67 -21 -97 -37 -49 -28 -151 -71 -396 -165
-136 -53 -152 -77 -102 -151 14 -21 34 -61 45 -88 50 -126 195 -328 308 -428
69 -62 207 -144 266 -160 91 -25 216 5 258 63 19 26 19 27 -2 70 -27 56 -26
77 2 118 35 53 111 101 221 139 96 34 102 38 134 86 18 28 46 79 63 115 17 36
44 92 60 125 16 33 29 65 29 71 0 28 -51 54 -165 83 -212 55 -331 90 -411 122
-94 37 -154 48 -213 37z"/>
<path d="M50838 5850 c-113 -35 -162 -144 -90 -200 52 -42 252 -9 289 47 16
24 16 27 -3 61 -38 70 -131 113 -196 92z"/>
<path d="M49913 5745 c-13 -9 -29 -42 -43 -87 -12 -40 -35 -94 -51 -119 -34
-53 -36 -70 -11 -92 26 -24 306 -25 340 -1 36 25 29 65 -26 131 -26 32 -63 79
-80 105 -29 42 -75 78 -99 78 -5 0 -18 -7 -30 -15z"/>
<path d="M47199 5709 c-12 -12 -36 -53 -54 -93 -18 -39 -47 -88 -64 -110 -35
-43 -39 -67 -15 -90 20 -20 45 -20 153 0 47 9 96 18 108 20 13 3 30 16 39 30
16 24 16 29 -1 82 -21 67 -58 143 -80 166 -23 22 -61 20 -86 -5z"/>
<path d="M50942 2923 c-12 -2 -30 -16 -39 -30 -15 -22 -15 -32 -4 -85 7 -33
16 -117 21 -186 5 -70 16 -170 25 -222 8 -52 15 -116 15 -142 0 -56 13 -89 43
-108 20 -14 295 -22 702 -22 28 0 520 1 1094 2 l1044 3 29 26 29 26 -11 122
c-6 67 -10 166 -9 220 1 123 -8 317 -16 344 -15 47 10 46 -1445 48 -756 1
-1393 3 -1415 5 -22 2 -50 2 -63 -1z"/>
<path d="M48960 2742 c-51 -16 -68 -84 -30 -122 37 -37 86 -19 96 36 11 59
-21 100 -66 86z"/>
<path d="M50668 2395 c-143 -115 -176 -120 -288 -39 -44 32 -70 28 -152 -23
-90 -56 -152 -51 -239 19 -21 17 -54 32 -75 35 -34 4 -48 -1 -103 -39 -59 -39
-69 -43 -125 -42 -63 1 -128 26 -156 59 -22 26 -66 45 -106 45 -31 0 -46 -9
-99 -59 -115 -107 -201 -127 -302 -71 -67 38 -98 38 -179 -1 -109 -53 -201
-40 -304 42 -69 54 -112 51 -189 -14 -98 -84 -195 -88 -293 -13 -66 49 -112
47 -179 -10 -141 -118 -286 -111 -463 23 -81 62 -109 66 -176 26 -38 -23 -60
-28 -147 -33 -100 -5 -103 -6 -137 -39 -54 -52 -71 -107 -57 -178 6 -31 11
-74 11 -96 0 -22 8 -64 17 -94 l17 -54 -28 -55 c-31 -60 -29 -75 8 -99 22 -15
84 -16 608 -15 321 1 610 2 643 3 33 0 476 -1 985 -2 594 -1 943 1 976 8 33 6
74 7 116 1 35 -5 326 -10 645 -12 608 -2 613 -2 613 40 0 8 -13 39 -30 69 -16
29 -30 59 -30 68 0 8 20 37 45 65 50 56 51 58 32 84 -13 18 -32 19 -284 17
-293 -2 -308 0 -380 55 -60 46 -76 93 -76 222 1 87 -2 116 -14 127 -24 24 -58
17 -105 -20z"/>
<path d="M51900 2007 c-42 -11 -40 -48 5 -98 49 -55 46 -72 -27 -157 -29 -34
-36 -66 -17 -77 17 -11 1200 -14 1242 -4 20 6 37 15 37 22 0 16 -24 51 -67
100 -18 20 -33 47 -33 59 0 13 22 41 57 73 59 55 66 85 21 85 -389 5 -1196 3
-1218 -3z"/>
<path d="M33288 15188 c5 -7 17 -35 25 -63 28 -94 48 -128 115 -195 106 -107
203 -130 225 -54 8 26 3 42 -29 105 -20 41 -45 106 -54 144 l-16 70 -138 3
c-112 2 -137 0 -128 -10z"/>
<path d="M40224 15193 c8 -8 149 -111 276 -200 52 -37 110 -81 130 -99 74 -66
111 -69 220 -19 41 19 101 39 133 45 104 20 125 58 119 206 l-4 74 -440 0
c-243 0 -438 -3 -434 -7z"/>
<path d="M41226 15107 c-10 -137 3 -158 114 -197 36 -12 77 -29 92 -36 15 -8
50 -14 78 -14 44 0 55 5 93 38 23 21 92 74 152 117 164 117 245 177 245 181 0
2 -173 4 -384 4 l-383 0 -7 -93z"/>
<path d="M40976 14825 c-113 -40 -129 -49 -208 -119 -66 -57 -98 -120 -98
-191 0 -124 144 -259 331 -309 127 -34 189 -33 300 4 122 41 212 104 268 188
59 90 62 121 17 209 -30 61 -47 80 -109 126 -102 78 -208 119 -317 124 -77 3
-94 0 -184 -32z m221 -137 c7 -6 13 -21 13 -35 0 -32 39 -69 86 -82 22 -6 45
-15 53 -20 22 -14 3 -49 -34 -61 -57 -19 -83 -46 -91 -95 -8 -55 -22 -67 -71
-63 -35 3 -39 7 -51 43 -18 56 -39 73 -101 85 -63 12 -83 25 -79 54 2 15 16
25 48 35 25 7 61 21 80 30 31 14 35 21 38 58 5 65 61 91 109 51z"/>
<path d="M36189 5532 c-61 -7 -56 218 -64 -2784 l-7 -2748 1476 0 1476 0 2
1273 c2 1824 2 1844 18 1902 20 77 106 243 154 299 24 28 48 61 54 72 25 47
128 163 210 237 176 158 401 286 642 365 118 40 297 82 344 82 41 0 99 22 123
46 23 24 25 29 18 97 -3 40 -10 97 -15 127 -8 50 -17 337 -25 805 -1 99 -6
188 -10 197 -4 10 -17 21 -28 25 -21 6 -4311 12 -4368 5z"/>
<path d="M40705 4130 c-255 -18 -525 -89 -735 -195 -294 -148 -550 -412 -630
-649 -39 -116 -51 -186 -51 -299 0 -234 70 -408 244 -608 179 -206 422 -354
742 -453 223 -69 557 -93 852 -61 176 19 172 18 338 70 394 124 699 355 862
655 73 134 88 201 88 385 -1 183 -11 236 -77 380 -165 362 -582 649 -1076 740
-117 22 -369 47 -427 43 -11 0 -69 -4 -130 -8z m245 -851 c167 -27 350 -180
350 -294 0 -50 -34 -107 -95 -163 -138 -127 -319 -166 -500 -108 -177 56 -303
191 -279 299 16 75 54 124 146 186 117 78 235 103 378 80z"/>
<path d="M40757 3146 c-57 -21 -115 -63 -137 -99 -55 -90 10 -178 164 -222
108 -31 226 4 306 91 35 38 41 51 36 75 -12 61 -79 123 -167 154 -51 19 -151
19 -202 1z"/>
<path d="M12969 3170 c-222 -40 -419 -148 -535 -292 -192 -237 -177 -515 40
-732 397 -398 1174 -354 1489 84 94 132 111 180 104 300 -7 120 -31 196 -91
287 -110 168 -310 295 -539 344 -137 30 -335 34 -468 9z m258 -301 c59 -29
105 -86 147 -184 31 -72 36 -94 36 -163 0 -45 6 -98 15 -122 31 -87 8 -130
-68 -130 -50 0 -65 12 -95 82 -18 40 -26 48 -61 58 -55 15 -107 4 -131 -28
-18 -22 -20 -34 -14 -83 6 -53 4 -60 -19 -83 -48 -48 -139 -29 -151 32 -3 15
-2 104 2 198 8 156 11 176 35 225 58 118 166 219 235 219 14 0 45 -9 69 -21z"/>
<path d="M13116 2699 c-31 -24 -56 -69 -56 -99 0 -11 12 -33 26 -47 22 -22 32
-25 70 -20 55 6 84 30 84 70 0 49 -51 117 -88 117 -5 0 -21 -9 -36 -21z"/>
<path d="M15213 2778 c-13 -6 -26 -20 -30 -32 -17 -49 -17 -554 0 -602 4 -12
20 -27 35 -33 19 -8 330 -11 1124 -9 l1097 3 22 21 c20 21 21 29 21 320 l0
299 -27 22 -26 23 -1097 -1 c-761 0 -1104 -4 -1119 -11z"/>
<path d="M42466 2499 c-15 -11 -47 -51 -73 -87 -73 -105 -147 -186 -231 -253
-292 -235 -632 -376 -1017 -419 -215 -24 -355 -25 -542 -5 -184 20 -238 31
-368 70 -382 115 -662 290 -861 538 -30 37 -67 75 -81 84 -25 16 -26 16 -45
-8 -18 -21 -20 -32 -12 -99 10 -95 12 -307 13 -1417 l1 -903 1155 0 1155 0 2
88 c0 48 2 200 2 338 1 237 2 253 21 274 45 51 58 52 493 49 l404 -3 20 24
c20 24 20 36 15 555 -3 292 -2 669 3 840 6 170 7 317 5 327 -9 26 -32 29 -59
7z"/>
<path d="M11515 2335 c-27 -14 -72 -45 -99 -69 -47 -40 -50 -46 -50 -92 0 -27
0 -527 2 -1111 l2 -1063 1458 0 1459 0 24 26 c77 82 310 199 490 246 120 32
130 33 329 33 199 0 208 -1 326 -32 178 -48 359 -137 474 -234 l46 -39 1072 0
1073 0 -6 1107 -6 1107 -40 54 c-64 84 -83 92 -227 92 -127 0 -173 -11 -186
-45 -3 -9 -3 -62 0 -118 7 -125 -7 -160 -76 -195 l-45 -22 -1220 2 c-1147 3
-1223 4 -1248 21 -55 36 -62 60 -59 192 4 175 42 160 -403 160 -420 0 -376 11
-453 -119 -232 -395 -845 -591 -1345 -430 -276 89 -499 253 -598 440 -59 113
-45 109 -367 112 l-277 3 -50 -26z"/>
<path d="M26420 1683 c-33 -12 -54 -42 -116 -168 -36 -71 -85 -157 -108 -190
-23 -33 -61 -96 -85 -140 -51 -97 -70 -115 -125 -115 -58 0 -82 20 -96 82 -27
113 -74 166 -124 139 -34 -19 -46 -52 -46 -128 0 -70 -9 -96 -100 -288 -25
-55 -52 -121 -59 -147 -17 -60 -48 -89 -103 -95 -75 -7 -99 17 -137 138 -18
57 -46 129 -62 159 -15 30 -38 91 -50 135 -12 44 -32 103 -44 132 -13 28 -30
86 -39 128 -9 42 -20 85 -26 95 -15 27 -48 43 -76 36 -23 -6 -28 -16 -54 -123
-13 -54 -87 -136 -142 -157 -34 -14 -69 -17 -194 -14 -181 4 -196 -2 -229 -94
-71 -198 -332 -379 -601 -419 -120 -18 -112 5 -120 -346 l-6 -303 2750 0 2750
0 6 63 c3 34 8 168 11 298 6 279 13 262 -121 285 -219 38 -435 173 -536 334
-8 14 -23 52 -33 85 -29 100 -35 112 -63 125 -36 17 -322 23 -376 7 -47 -13
-60 -33 -80 -125 -9 -40 -32 -111 -51 -157 -19 -46 -41 -110 -49 -142 -16 -72
-35 -110 -73 -145 -48 -46 -107 -59 -157 -37 -31 15 -43 46 -51 134 -4 39 -16
106 -27 150 -13 52 -22 137 -27 242 -6 125 -11 167 -25 187 -20 31 -26 32 -59
6 -17 -13 -36 -51 -58 -113 -37 -104 -77 -152 -134 -163 -53 -10 -86 3 -125
49 -64 75 -91 97 -119 97 -42 0 -68 -25 -76 -72 -3 -24 -17 -79 -30 -123 -13
-44 -29 -106 -35 -138 -19 -94 -73 -139 -150 -122 -44 10 -58 39 -86 177 -13
67 -37 164 -53 213 -17 50 -35 117 -41 150 -7 33 -20 94 -31 137 -10 42 -24
111 -30 154 -11 79 -22 113 -43 126 -12 9 -15 9 -36 1z"/>
<path d="M23455 1634 c-178 -31 -375 -169 -423 -296 -35 -93 -38 -146 -12
-225 26 -81 57 -129 121 -187 94 -84 269 -154 432 -171 109 -12 302 27 411 82
167 84 276 230 280 373 3 123 -113 275 -271 358 -143 74 -347 99 -538 66z"/>
<path d="M29075 1634 c-92 -18 -136 -37 -218 -91 -86 -57 -168 -155 -198 -236
-23 -60 -23 -61 -5 -145 22 -109 43 -148 119 -226 100 -102 248 -164 433 -181
148 -15 367 67 477 178 73 73 102 128 116 218 20 126 -15 225 -115 325 -142
143 -378 204 -609 158z"/>
<path d="M33165 1411 c-33 -9 -71 -23 -85 -31 -36 -19 -368 -126 -436 -140
-98 -20 -150 -47 -188 -99 -19 -25 -93 -122 -165 -216 -72 -93 -155 -201 -184
-239 -104 -136 -123 -160 -179 -223 -58 -65 -70 -97 -46 -121 8 -8 53 -12 138
-12 69 0 142 -5 162 -10 63 -18 74 -64 32 -136 -14 -24 -34 -76 -44 -114 l-18
-70 194 0 193 0 118 156 c65 86 144 186 176 221 87 99 73 142 -45 129 -32 -3
-84 -9 -116 -12 -100 -11 -164 36 -131 98 6 12 46 59 88 103 42 44 176 190
299 325 122 135 245 268 273 295 67 67 77 85 53 102 -21 15 -14 16 -89 -6z"/>
<path d="M42227 634 c-4 -4 -106 -8 -228 -8 l-221 -1 -23 -26 c-20 -25 -22
-37 -23 -140 0 -64 4 -120 10 -126 17 -21 72 -15 124 13 152 82 204 107 311
150 124 51 198 103 177 124 -13 14 -116 25 -127 14z"/>
<path d="M43137 634 c-4 -4 -101 -8 -215 -8 l-207 -1 -60 -33 c-66 -35 -484
-242 -490 -242 -3 0 -92 -43 -200 -95 -220 -108 -238 -123 -233 -205 l3 -45
242 -3 242 -2 93 53 c51 30 217 125 368 213 151 87 331 188 399 224 125 65
176 109 154 131 -13 13 -85 23 -96 13z"/>
<path d="M43353 505 c-73 -49 -208 -127 -708 -414 l-150 -86 303 -3 303 -2
172 102 c95 57 188 117 207 135 l35 31 3 109 c2 59 3 121 4 137 2 66 -63 62
-169 -9z"/>
<path d="M14975 180 c-167 -27 -367 -99 -445 -160 -25 -19 -22 -20 600 -20
l625 0 -30 21 c-146 99 -354 159 -570 165 -71 1 -152 -1 -180 -6z"/>
<path d="M43428 46 c-80 -42 -79 -46 15 -46 69 0 87 3 87 14 0 17 -38 46 -60
46 -8 0 -27 -7 -42 -14z"/>
</g>
</svg>
